<?xml version="1.0" encoding="UTF-8" standalone="no"?>
<!-- Created with Inkscape (http://www.inkscape.org/) -->

<svg
   width="108mm"
   height="100mm"
   viewBox="0 0 108 100"
   version="1.1"
   id="svg2431"
   inkscape:version="1.1.2 (0a00cf5339, 2022-02-04)"
   sodipodi:docname="aguila_imss.svg"
   xmlns:inkscape="http://www.inkscape.org/namespaces/inkscape"
   xmlns:sodipodi="http://sodipodi.sourceforge.net/DTD/sodipodi-0.dtd"
   xmlns="http://www.w3.org/2000/svg"
   xmlns:svg="http://www.w3.org/2000/svg">
  <sodipodi:namedview
     id="namedview2433"
     pagecolor="#ffffff"
     bordercolor="#666666"
     borderopacity="1.0"
     inkscape:pageshadow="2"
     inkscape:pageopacity="0.0"
     inkscape:pagecheckerboard="0"
     inkscape:document-units="mm"
     showgrid="false"
     inkscape:zoom="0.83723169"
     inkscape:cx="299.20033"
     inkscape:cy="186.32835"
     inkscape:window-width="1920"
     inkscape:window-height="1001"
     inkscape:window-x="0"
     inkscape:window-y="0"
     inkscape:window-maximized="1"
     inkscape:current-layer="layer1" />
  <defs
     id="defs2428" />
  <g
     inkscape:label="Capa 1"
     inkscape:groupmode="layer"
     id="layer1">
    <path
       id="_82719240"
       style="clip-rule:evenodd;fill:#144e39;fill-rule:evenodd;stroke-width:8.41444;image-rendering:optimizeQuality;shape-rendering:geometricPrecision;text-rendering:geometricPrecision"
       class="fil5"
       d="M 55.179331,0.17227985 C 42.520703,0.14435123 30.349751,0.56314579 18.758038,1.513161 8.638047,1.482922 5.3285856,4.9849073 1.8970939,15.396426 h 0.00258 c -1.79540062,23.531984 -1.5838306,47.064029 0,70.596842 3.4272759,10.816394 8.5498411,11.971882 16.8609441,13.288124 25.255305,1.323808 50.513039,1.122538 75.769192,-0.287779 6.51908,-2.442659 10.84327,-6.757757 12.97331,-12.946713 1.63182,-23.550438 1.36305,-47.100017 0.0253,-70.650474 C 106.3189,7.2158865 103.90968,2.9814419 94.527227,1.513161 80.984174,0.67486226 67.837962,0.20020847 55.179331,0.17227985 Z M 89.487059,5.6353353 c 9.631978,0.087663 11.044661,9.9955267 10.794001,22.0652217 -2.238764,20.681928 -3.83545,59.233332 -28.551299,66.140468 -1.417772,0.622424 -3.512437,0.68383 -3.512437,-1.30272 2.304523,-3.701777 3.981814,-7.318635 4.581125,-11.725998 0,-15.18259 -5.242646,-24.465899 -19.848612,-32.954713 C 50.354514,47.090703 50.354495,47.090703 47.911738,45.864328 43.713196,44.868119 43.71304,44.86764 39.437793,43.488395 32.229217,43.04993 24.56373,43.276123 17.301205,42.11863 c -2.442754,0.536746 -4.658712,-0.009 -7.101468,0.603911 -0.152566,-0.07724 -0.229152,-0.15358 -0.3058586,-0.230016 -0.3809936,-2.452738 -0.3807943,-2.453088 -0.2282262,-3.832333 0.075861,-0.383027 0.1523648,-0.689269 0.2282262,-0.99586 0.6667456,-0.236033 2.5096336,-1.546668 6.6424256,-0.30686 0.686973,0.07644 1.37381,0.229466 2.060783,0.383186 1.145517,-0.843337 2.290023,-1.609571 3.511402,-2.376452 h 0.305339 v -0.765854 h -5.649295 c -0.380997,-0.152872 -0.76271,-0.230425 -1.068688,-0.306851 0,-0.306591 0.07564,-0.612943 0.153186,-0.919534 1.144674,-0.766063 1.60253,-0.919823 2.977319,-1.072704 1.67908,-0.460311 3.35891,-0.843368 5.114695,-1.226394 6.454171,0 12.394353,-0.130906 18.779405,-0.843208 0.229273,0 0.534291,0.07724 0.839425,0.15369 0.07586,0.230155 0.1534,0.536936 0.229264,0.842688 -1.757472,0.661904 -6.819862,4.402752 -7.55741,6.131433 13.38543,0 35.662538,-21.773765 45.193336,-30.1197855 3.178765,-1.1197944 5.839228,-1.6225804 8.061994,-1.6023512 z M 21.510748,5.8880411 c 1.495403,-0.01968 3.059395,0.2676158 4.719823,0.8138112 0.0084,-0.074759 20.21629,16.2056607 23.130235,17.6269107 0,0.613182 -0.66709,2.833909 -0.66709,3.447092 -6.351334,0 -30.722992,-2.534225 -36.433716,3.37334 V 13.829149 c 0.12728,-2.105828 0.976059,-4.1829546 2.213453,-5.0582177 2.242669,-1.9639712 4.544962,-2.8500864 7.037295,-2.8828902 z M 72.114282,22.387572 c -2.435426,-8.18e-4 -9.237601,7.820492 -11.381915,9.528504 -1.537465,1.246524 -2.187207,4.037939 1.317618,7.596086 7.38053,7.494281 12.905048,25.553743 13.699907,30.758246 0.01433,0.09491 0.493166,3.958948 1.269486,1.717882 3.423068,-9.884016 -5.984213,-24.732101 -9.95096,-33.940781 -3.005823,-7.86639 3.642227,-9.490232 5.267364,-15.634658 -0.06917,-0.01677 -0.142939,-0.02525 -0.2215,-0.02525 z M 25.830527,46.770449 c 4.154492,0.03423 8.268251,0.414314 11.443498,1.573474 1.338535,0.577065 1.10861,0.775065 1.526695,1.532725 0.152565,2.75933 0.152576,2.75947 -0.229263,5.36507 C 50.473364,53.374447 62.615391,52.58542 67.656845,72.561773 71.748333,96.339851 53.710107,97.178368 40.814408,95.167467 24.542007,94.66096 15.556833,60.459704 14.143271,47.271218 c 3.337931,-0.223429 7.532754,-0.53499 11.687256,-0.500769 z m 20.6575,8.157712 c -2.80551,-0.05379 -4.666025,1.282511 -7.12838,4.041211 -0.07586,1.839547 -0.07607,3.679203 -0.07607,5.518749 1.908351,3.831985 0.228563,6.054578 -1.297952,9.656407 -0.916243,1.149928 -2.137392,2.682155 -1.67885,4.138675 0.61027,0.153719 5.572186,-3.755539 5.572186,0 1.373947,0.536746 1.374021,0.536387 1.603291,0.995859 h 1.603289 V 78.66587 c -0.305976,-0.229317 -0.611187,-0.459363 -0.840457,-0.689518 -0.305135,-0.459472 -0.610367,-0.919584 -0.915502,-1.379046 0.305135,-0.766902 0.610367,-1.456819 0.915502,-2.146437 H 43.48225 c -0.0767,0.15372 -0.153401,0.306711 -0.229262,0.536866 -1.831647,-0.153719 -2.671856,0.306591 -3.740668,-1.380074 2.29019,-3.295237 4.886093,-4.367932 8.85536,-4.674523 2.137623,-0.460301 2.137459,-0.46044 3.511405,-1.150058 -0.07586,-0.383037 -0.153404,-0.765595 -0.229265,-1.072186 -1.449808,-0.07644 -3.129439,0.613073 -4.580092,0.689518 -0.0767,-0.153709 -0.152669,-0.306731 -0.152669,-0.383176 -5.328041,0.961768 -9.031163,-9.42691 -0.07607,-9.42691 1.67908,0.230156 4.274423,0.996149 5.038103,2.529105 6.183596,3.716896 7.023312,10.765896 7.252585,15.327807 -2.895399,8.611346 -5.635607,8.799496 -9.373918,8.617224 -2.688046,-0.131036 -4.475838,-0.969244 -7.621584,0.801432 -1.642834,0.925651 -3.820856,-0.937178 -4.227137,-1.141296 -0.61027,0.07645 -1.144971,-0.153261 -1.450105,0.536357 2.010343,4.447681 5.17818,4.263942 8.015418,3.449157 1.603218,0.152881 3.206352,0.306511 4.88543,0.535828 -0.380996,1.149929 -3.205624,0.996379 -4.046005,0.996379 0.0767,0.536746 0.153403,1.150078 0.229264,1.76326 24.063431,4.094045 20.767886,-32.384883 4.351344,-34.948497 -0.07586,-0.229317 -0.152884,-0.459483 -0.228745,-0.613192 -1.202414,-0.325703 -2.24243,-0.497796 -3.177601,-0.515729 z" />
  </g>
</svg>
