<?xml version="1.0" encoding="UTF-8" standalone="no"?>
<svg
   width="64"
   height="44"
   fill="currentColor"
   class="bi bi-tv-fill"
   viewBox="0 0 64 44"
   version="1.1"
   id="svg4"
   sodipodi:docname="logo_gekko.svg"
   inkscape:version="1.1.2 (0a00cf5339, 2022-02-04)"
   xmlns:inkscape="http://www.inkscape.org/namespaces/inkscape"
   xmlns:sodipodi="http://sodipodi.sourceforge.net/DTD/sodipodi-0.dtd"
   xmlns="http://www.w3.org/2000/svg"
   xmlns:svg="http://www.w3.org/2000/svg">
  <defs
     id="defs8" />
  <sodipodi:namedview
     id="namedview6"
     pagecolor="#ffffff"
     bordercolor="#666666"
     borderopacity="1.0"
     inkscape:pageshadow="2"
     inkscape:pageopacity="0.0"
     inkscape:pagecheckerboard="0"
     showgrid="false"
     inkscape:zoom="4"
     inkscape:cx="-11"
     inkscape:cy="21.25"
     inkscape:window-width="1920"
     inkscape:window-height="1001"
     inkscape:window-x="0"
     inkscape:window-y="0"
     inkscape:window-maximized="1"
     inkscape:current-layer="g1034" />
  <g
     id="g4228"
     transform="matrix(1,0,0,1.0118906,0.48150403,-1.3746841)">
    <g
       id="g1034"
       transform="matrix(0.30482035,0,0,0.36524051,94.812165,-57.192325)"
       style="stroke-width:0.297935;stroke-miterlimit:4;stroke-dasharray:none">
      <g
         id="g2723"
         transform="translate(-316.81419,66.89684)"
         style="stroke-width:0;stroke-miterlimit:4;stroke-dasharray:none">
        <path
           id="path1044"
           style="fill:#6fdccc;stroke-width:0;stroke-miterlimit:4;stroke-dasharray:none"
           d="m 139.71484,93.433594 c -9.86257,0.296074 -19.86484,2.223925 -28.88425,6.406916 -3.65593,1.6694 -7.15557,3.67486 -10.36366,5.95921 -5.535306,3.97123 -10.285721,8.98303 -14.260337,14.49957 -1.026355,1.3429 -1.748115,2.89586 -2.787787,4.22246 -0.724746,0.81431 -1.881433,0.18282 -2.772317,0.11391 -4.357515,-0.94037 -8.80217,-0.9107 -13.244649,-0.75989 -3.596039,0.10299 -7.166785,0.80585 -10.633348,1.73923 -5.556997,1.50726 -10.914506,3.90976 -15.668662,7.17516 -2.223157,1.43955 -4.307492,3.12063 -6.185276,5.06476 -4.404107,4.21041 -8.219326,9.03673 -11.20191,14.35362 -1.385184,2.30986 -2.3969,4.81833 -3.754017,7.13964 -0.374608,0.79211 -1.616602,1.43709 -2.25709,0.58287 -0.985891,-1.41596 -1.15099,-3.21832 -1.450986,-4.87589 -1.386996,-9.51116 0.942254,-19.55172 6.608249,-27.34477 1.319144,-1.92832 3.050396,-3.51347 4.506434,-5.32758 1.398549,-1.64594 -0.0024,-4.43529 -2.093933,-4.52792 -1.319631,-0.042 -2.268854,1.08706 -3.227295,1.83833 -3.440321,3.15675 -6.857746,6.40847 -9.436967,10.34863 -3.758454,5.47975 -6.3910173,11.83817 -7.685164,18.38979 -0.6751573,4.11814 -0.8980897,8.32275 -0.5737959,12.50174 0.6185475,6.52067 3.2406691,12.90629 7.7693279,17.68772 4.272176,4.73361 10.112076,8.09349 16.442682,9.06056 0.970532,0.21659 2.013385,0.21984 2.939911,0.57029 0.888293,0.73796 0.897663,2.0325 1.249099,3.05755 0.166815,0.64333 0.319318,1.29046 0.504807,1.92878 6.442069,-2.577 13.00333,-4.85022 19.519632,-7.2346 0.572232,-0.20695 1.144464,-0.41391 1.716696,-0.62087 -1.518995,-0.36284 -3.185069,-0.86288 -4.203125,-2.12304 -0.709075,-1.0641 -0.818871,-2.56044 -0.257812,-3.70704 0.898038,-1.45821 2.623865,-2.30647 4.328626,-2.12223 1.570267,0.10686 3.180552,0.52051 4.435046,1.51091 2.046318,-2.42349 5.190718,-3.49108 8.147351,-4.33489 6.676396,-1.7329 13.606279,-2.13122 20.471157,-2.42222 5.923421,-0.20931 11.852596,-0.18883 17.777973,-0.0808 -6.779154,-3.80089 -11.803193,-10.6464 -13.321997,-18.27456 -0.371079,-2.70994 -0.237324,-5.46166 -0.191298,-8.18888 0.171229,-3.35654 1.393799,-6.58222 2.96299,-9.522 4.309637,-7.81754 12.967385,-13.16769 21.944835,-13.12003 7.03219,0.0115 13.9633,3.15237 18.74057,8.28596 2.64111,2.94641 4.50965,6.53213 5.79654,10.25505 1.12535,3.62114 1.30578,7.49013 0.95423,11.24765 -0.51108,4.40658 -2.23853,8.65551 -4.80774,12.26017 -2.44223,3.32214 -5.70668,6.02693 -9.40039,7.85351 17.57471,0.78646 35.13817,1.95759 52.7332,2.18669 7.3328,0.0338 14.65473,0.0166 21.91523,-1.01677 2.81797,-0.4885 5.78182,-0.97242 8.19928,-2.60004 1.11863,-0.707 1.81221,-2.09251 1.40033,-3.39996 1.18942,-3.49953 1.8773,-7.14647 1.94707,-10.8018 0.13894,-4.61601 0.0284,-9.21999 -0.92366,-13.75218 -1.29091,-6.42858 -2.66176,-13.05303 -6.28166,-18.63914 -2.33729,-3.75643 -5.65774,-6.95744 -9.32182,-9.31078 -2.19653,-1.44608 -4.83408,-2.39272 -7.39993,-3.13878 -0.96306,-0.36076 -1.99494,-0.36073 -2.97898,-0.60536 -2.26957,-0.86389 -3.75396,-2.91766 -5.59255,-4.40379 -3.06434,-2.69458 -6.39502,-5.10352 -10.06071,-6.91622 -9.77546,-5.098074 -20.83373,-7.345692 -31.78815,-7.068666 z m -0.60937,5.357422 c 1.14066,-0.03638 2.41288,-7.28e-4 3.25904,0.885932 1.62845,1.199942 2.54842,3.505502 1.65137,5.416322 -1.20518,2.66986 -4.76472,3.60501 -7.32796,2.42416 -1.65269,-0.67184 -3.02061,-2.2875 -2.87798,-4.14854 0.0213,-2.26803 1.84098,-4.563314 4.2174,-4.552484 0.3592,-0.01952 0.71849,-0.02372 1.07813,-0.02539 z m -13.5,1.853514 c 2.03519,-0.0653 3.76624,1.61658 4.10326,3.56297 0.27604,1.49919 0.29502,3.24174 -0.80043,4.43951 -1.62157,1.94841 -4.06359,2.98526 -6.42425,3.74026 -2.42104,0.66288 -4.99744,0.84574 -7.48405,0.49359 -1.2261,-0.51177 -2.18585,-1.58519 -2.83061,-2.72774 -0.88997,-1.64659 -0.62189,-3.86196 0.60991,-5.25468 1.50205,-1.09808 3.33519,-1.63235 5.05703,-2.29086 2.46829,-0.81968 4.96791,-1.67097 7.56457,-1.95387 0.0683,-6.1e-4 0.13627,-0.0106 0.20457,-0.009 z m 42.99219,4.37305 c 0.5608,0.10651 1.24875,0.61784 0.83789,1.23047 -0.64991,0.67309 -2.12308,-0.28663 -1.48111,-1.07637 0.1668,-0.18743 0.41067,-0.20491 0.64322,-0.1541 z m 6.41992,4.45117 c 0.5739,0.25156 1.55444,0.55268 1.38476,1.3457 -0.28245,0.73804 -1.13383,0.28279 -1.51953,-0.11914 -0.66673,-0.54197 -1.19763,-1.23012 -1.80859,-1.83203 0.64779,0.20182 1.29557,0.40365 1.94336,0.60547 z m 5.0918,4.4668 c 0.50012,0.33141 1.42358,0.90268 0.93359,1.57422 -0.44914,0.5834 -1.1451,-0.0959 -1.43018,-0.5343 -0.41396,-0.57292 -0.67566,-1.2445 -1.03271,-1.85438 0.50976,0.27149 1.01953,0.54297 1.5293,0.81446 z m 3.57617,2.79297 c 3.23766,0.19831 6.48075,0.80562 9.43161,2.19546 5.54613,2.5511 10.27447,6.96323 12.9512,12.47641 1.26399,2.65001 2.30623,5.46343 2.65056,8.39274 0.1343,2.54427 0.13551,5.10973 -0.11254,7.64701 -1.07164,7.26388 -5.59329,14.11947 -12.22357,17.43486 -2.42757,1.15473 -5.1302,1.90245 -7.83366,1.76742 -1.00318,0.0196 -1.35169,-1.01463 -1.73125,-1.75299 -0.7881,-1.6836 -1.69319,-3.3444 -2.20177,-5.13612 -0.12346,-0.5225 0.6657,-0.60043 1.05795,-0.61208 3.13675,0.0101 6.36929,-0.60514 8.98623,-2.42462 5.46154,-3.65316 7.91557,-10.88836 6.41888,-17.1978 -0.38287,-1.78354 -1.13792,-3.45776 -1.99716,-5.05787 -1.32917,0.91004 -2.91943,1.85847 -4.59705,1.40365 -1.89171,-0.48945 -3.67196,-2.06603 -3.76232,-4.1224 -0.11713,-1.56132 0.42313,-3.27023 1.71875,-4.22657 -2.5105,-1.17455 -5.43093,-1.43027 -8.07377,-0.89951 -0.97851,0.18553 -1.88075,0.65281 -2.86764,0.80186 -0.695,-0.62185 -0.17293,-1.61705 -0.11403,-2.40259 0.54445,-2.79106 1.20063,-5.55917 1.84059,-8.32983 0.153,0.0143 0.30599,0.0286 0.45899,0.043 z m -109.476566,12.5332 c 2.296756,0.0217 4.595995,0.31583 6.804688,0.95703 -1.087948,3.05132 -2.015079,6.15807 -2.697266,9.32617 -2.460829,0.0336 -5.213327,-0.17919 -7.085881,-1.97424 -1.538747,-1.38187 -1.759435,-3.76769 -0.847371,-5.55957 0.528495,-1.29344 1.529859,-2.57979 3.030908,-2.6908 0.264154,-0.0329 0.528941,-0.05 0.794922,-0.0586 z m -8.271484,0.0234 c 0.597418,-0.008 0.662308,0.56873 0.863281,0.91406 1.318523,1.27668 2.118674,3.25179 1.496627,5.06248 -0.524917,1.76315 -2.061156,3.28509 -3.961312,3.38744 -1.660584,0.0993 -3.338695,-0.0587 -4.988409,0.23995 -2.050319,0.17805 -3.955746,-1.58928 -4.278511,-3.56025 -0.22999,-1.45947 0.266999,-3.11586 1.41798,-4.07233 1.366963,-0.7764 2.988759,-0.92427 4.499446,-1.27783 1.636882,-0.2932 3.28488,-0.63957 4.950898,-0.69352 z m 50.05859,2.35546 c -2.42235,0.072 -4.96753,0.60619 -7.1148,1.88374 -6.04184,3.31656 -9.539715,10.47096 -8.78636,17.27634 0.29437,3.11119 1.40568,6.13343 3.26905,8.64875 3.39646,4.71411 9.34932,7.63402 15.18069,6.88737 2.72097,-0.30557 5.34623,-1.08493 7.64674,-2.64346 5.41073,-3.63329 8.28408,-10.54348 7.20122,-16.94955 -0.34982,-2.02465 -0.99123,-4.00912 -1.91021,-5.84733 -0.97234,2.22067 -3.37283,3.55826 -5.70655,3.84202 -3.52195,0.3251 -6.97618,-2.67662 -7.04182,-6.23716 -0.12145,-1.98665 0.92618,-3.85292 2.41996,-5.10093 0.41739,-0.37747 0.8709,-0.72366 1.37529,-0.97658 -2.05947,-0.7946 -4.35366,-0.83667 -6.53321,-0.78321 z m -66.410152,2.60743 c 1.453221,0.14639 2.891359,1.0744 3.532028,2.40309 0.739347,1.84796 0.02206,4.36497 -1.844528,5.23948 -1.393441,0.43297 -2.9769,0.72338 -4.386719,0.2129 -1.92824,-0.76409 -2.971887,-3.22404 -2.232422,-5.14454 0.589282,-0.9686 1.749225,-1.38955 2.691406,-1.93945 0.715135,-0.32105 1.443395,-0.72722 2.240235,-0.77148 z M 32.544922,194.1875 c 0.620487,0.73674 1.0749,-0.50197 0.356453,-0.39095 -0.118818,0.13032 -0.237636,0.26063 -0.356453,0.39095 z m 90.806638,10.47461 c -0.29622,0.61388 1.26995,-0.0211 0.17008,-0.0525 l -0.0956,0.0295 z m -9.47461,7.39453 c 0.0638,1.05527 0.38364,-0.4499 0,0 z m -7.41601,0.041 c 0.0622,1.04151 0.41553,-0.52452 0,0 z"
           sodipodi:nodetypes="scccccccccccccccccccccccccccccccccccccccccccccccccccccccssccccccccccccccccccccccccccccccccccccccccccccccccccccccscccccsscccccccccccccccccccccccccccccccccccccccc" />
        <path
           id="path1042"
           style="fill:#8cea58;stroke-width:0;stroke-miterlimit:4;stroke-dasharray:none"
           d="m 139.75,93.527344 c -8.53746,0.235829 -17.0801,1.737001 -25.1068,4.7747 -5.36943,2.052036 -10.47593,4.815196 -15.039298,8.318896 -3.58012,2.69288 -7.033624,5.6173 -9.809811,9.15739 -2.301855,2.79282 -4.401874,5.75176 -6.264794,8.85253 -0.458631,0.74386 -1.374644,0.50713 -2.049562,0.27388 -5.219759,-1.07543 -10.635306,-1.25069 -15.902159,-0.79644 -5.646105,0.54159 -11.203283,1.86272 -16.332083,4.33084 -3.437643,1.60007 -6.867088,3.29516 -9.850415,5.66641 -5.8454,4.42036 -10.724983,10.11911 -14.526038,16.37729 -1.688655,2.67017 -2.99242,5.55236 -4.486729,8.32783 -0.447665,0.78776 -1.209399,1.94018 -2.267077,1.48816 -1.131615,-0.61229 -1.300037,-2.06027 -1.61088,-3.18525 -0.863304,-4.33385 -0.918391,-8.82625 -0.310084,-13.19804 0.707993,-4.33738 2.109078,-8.58031 4.172166,-12.46354 1.705846,-3.24433 4.155358,-5.99249 6.557492,-8.7275 0.594225,-0.60707 1.037191,-1.39937 0.855369,-2.27528 -0.09247,-1.60967 -1.947359,-3.13099 -3.492188,-2.29297 -2.758595,1.83128 -5.048685,4.26985 -7.329079,6.64813 -4.07093,4.26626 -7.2116261,9.51878 -9.4033425,14.96906 -3.0023426,7.5282 -4.2291967,15.942 -2.7109375,23.98633 1.1203072,5.78914 3.7701667,11.18526 7.863503,15.44002 3.935552,4.11631 9.193082,6.9948 14.802513,8.22599 1.325772,0.3176 2.682686,0.47682 4.03125,0.61133 0.996197,0.33921 0.809458,1.61095 1.111613,2.42243 0.903086,4.10641 2.759609,8.03805 5.660885,11.11309 2.734435,3.13802 6.479904,5.33823 10.542164,6.2365 3.967301,0.91904 7.985374,1.11965 12.048114,0.73854 2.042375,-0.17783 4.023019,-0.58583 5.783708,-1.70392 1.520287,-0.84432 2.728882,-2.14118 3.545327,-3.6694 0.799607,-1.39854 1.44212,-2.80211 1.714191,-4.36903 0.123137,-0.6792 0.890953,-0.85308 1.430544,-0.54213 2.142999,0.57595 4.286162,1.06409 6.452516,1.33447 0.954977,-0.10603 1.560723,0.72996 1.904755,1.50129 1.652831,2.63909 3.745759,5.10517 6.487478,6.65855 2.884835,1.73396 6.193253,2.89029 9.480623,3.20444 5.041306,0.54663 10.125946,0.51503 15.190146,0.45351 2.38993,-0.008 4.91416,-0.14786 6.98823,-1.47528 2.06122,-1.18007 3.28422,-3.61659 2.93979,-5.97503 -0.0723,-0.95195 -0.48927,-1.91981 -0.21758,-2.86944 1.31822,-0.19386 2.62851,0.29747 3.9391,0.41115 4.10046,0.52547 8.22387,0.90325 12.3667,1.05172 1.53784,0.23972 2.52964,1.60905 3.83147,2.33663 3.70417,2.53185 8.31449,3.36922 12.67132,3.5716 3.59592,0.12238 7.19606,0.28534 10.69336,-0.67578 2.38006,-0.69722 4.72959,-2.49424 5.1875,-5.05274 0.12585,-0.84424 0.1808,-1.69676 0.27344,-2.54492 4.45488,-1.09544 8.87237,-2.29011 13.0885,-4.10195 4.98142,-2.10058 9.80213,-4.71759 13.89278,-8.32039 4.61455,-3.96408 8.63589,-8.77124 11.25888,-14.25094 2.99473,-6.069 4.44857,-12.85373 4.33922,-19.56145 -0.13217,-5.82042 -1.14835,-11.65598 -2.59469,-17.31648 -1.19951,-4.65869 -2.84735,-9.30433 -5.79792,-13.16433 -3.50376,-4.71651 -8.26798,-8.68633 -13.94349,-10.44556 -1.57917,-0.50771 -3.09229,-0.98935 -4.77747,-1.0487 -5.39337,-3.70255 -10.11429,-8.57788 -15.55143,-11.3189 -6.07362,-3.174045 -12.67811,-5.340473 -19.42651,-6.3355 -4.04885,-0.643028 -8.17788,-0.906832 -12.30428,-0.801816 z m 0.29492,5.175781 c 5.06121,-0.425941 10.59769,1.190156 2.82227,1.382815 4.71192,5.32309 -3.55932,9.43516 -7.2592,6.80849 -1.0128,-0.74439 -1.97437,-1.87726 -1.75447,-3.22451 0.0113,-1.24985 0.29743,-2.54003 1.17157,-3.47949 0.28596,-0.548901 0.59787,-1.153969 1.29718,-1.22168 1.21862,-0.269696 2.48133,-0.252603 3.72265,-0.265625 z m -13.90234,1.769535 c 1.09664,0.0899 1.88738,1.0087 2.63867,1.72265 1.19413,1.33572 1.21495,3.29926 0.93528,4.96927 -0.73165,2.16071 -2.86451,3.40573 -4.81987,4.32251 -2.9571,1.38154 -6.3156,1.8065 -9.54314,1.45041 -1.43327,-0.27639 -2.40041,-1.56948 -3.1543,-2.72266 -0.77062,-1.48724 -0.70456,-3.38645 0.0547,-4.86523 0.73,-1.12033 2.15865,-1.42841 3.3023,-1.96757 3.33646,-1.23379 6.74553,-2.38829 10.27604,-2.89576 0.10326,-10e-4 0.20743,-0.0205 0.31033,-0.0136 z m 67.7455,18.70607 c 4.33515,2.21389 8.10582,5.56315 10.78894,9.62542 1.60136,2.65999 2.9854,5.50851 3.67845,8.54937 0.61761,3.14532 0.49467,6.37978 0.36066,9.56489 -0.34369,3.80561 -1.87261,7.44698 -3.98618,10.60309 -3.15978,4.67412 -8.1555,8.29504 -13.83547,9.01432 -1.21884,0.14447 -2.8411,0.50623 -3.66987,-0.68621 -0.87428,-1.48386 -1.39898,-3.15082 -2.10499,-4.71868 -0.24231,-0.5653 -0.45342,-1.1429 -0.67431,-1.71687 1.99346,-0.49693 4.08325,-0.35525 6.06552,-0.94624 3.65035,-0.85371 6.76354,-3.36481 8.64542,-6.57134 2.54178,-4.18702 2.89819,-9.57525 1.35352,-14.11523 -0.40336,-1.13131 -0.83599,-2.26957 -1.46289,-3.29687 -1.11671,0.95807 -2.59746,1.68214 -4.09491,1.58035 -1.96656,-0.30817 -3.86401,-1.6907 -4.25392,-3.72703 -0.4273,-1.75644 0.33059,-3.63238 1.675,-4.79082 -2.50549,-1.22661 -5.56487,-1.35651 -8.13256,-0.82112 -1.0474,0.13972 -2.09323,0.87121 -3.15651,0.49104 -0.0422,-1.51527 0.51156,-2.97821 0.77467,-4.45875 0.42238,-8.2602 5.93431,-6.71247 12.02943,-3.57932 z m -77.23964,3.84861 c 8.39768,-0.0412 16.64575,4.46272 21.18228,11.52035 1.57062,2.69248 2.96202,5.53788 3.74971,8.56421 0.83432,4.07204 0.94806,8.34459 0.0143,12.41086 -1.23604,5.21282 -4.00255,10.10545 -8.08814,13.6096 -4.2203,3.69784 -9.70361,6.11693 -15.37067,6.06544 -3.09977,0.0971 -6.25628,-0.16653 -9.15939,-1.33061 -6.90935,-2.54433 -12.590197,-8.07159 -15.48108,-14.82466 -1.135786,-2.62303 -1.929325,-5.44023 -1.856885,-8.32139 -0.0028,-3.16074 -0.210136,-6.40986 0.832622,-9.44941 2.033576,-6.89881 7.090268,-12.84593 13.630013,-15.86583 3.25881,-1.65245 6.91145,-2.35699 10.54721,-2.37856 z M 73.041016,129 c 2.488595,0.22246 4.985263,0.47417 7.445312,0.9082 0.708879,0.0707 0.254599,0.98003 0.183594,1.42969 -0.823404,2.72137 -1.6869,5.4336 -2.326172,8.20703 -2.488261,0.0419 -5.253876,-0.20149 -7.149493,-2.00478 -1.831569,-1.64897 -1.606551,-4.6123 -0.317304,-6.52061 0.293154,-0.5204 0.979081,-0.85981 0.927735,-1.49414 0.135397,-0.50533 0.805534,-0.53014 1.236328,-0.52539 z m -7.173828,0.24219 c 0.489688,-0.0537 1.136666,0.18027 0.96875,0.76367 0.596656,0.99379 1.488204,1.89823 1.526291,3.13326 0.189766,1.21471 0.09412,2.53668 -0.729143,3.51633 -0.804468,1.17494 -2.091888,2.02624 -3.543151,2.07311 -1.925179,0.13159 -3.872314,0.23155 -5.796966,0.0683 -2.103209,-0.4569 -3.635476,-2.7217 -3.191407,-4.85157 0.22256,-0.91666 0.0021,-2.17537 1.023438,-2.66797 1.752895,-0.85949 3.730426,-1.12125 5.625124,-1.52094 1.361966,-0.23771 2.734111,-0.45416 4.117064,-0.51421 z m 21.003906,1.66797 c 0.777154,-0.0164 0.782836,1.05955 0.24414,1.41992 -0.23222,0.34078 -1.091238,0.52279 -1.080069,-0.0274 -0.11451,-0.52743 0.24588,-1.35626 0.835929,-1.39252 z m 29.138676,0.75781 c -3.80892,0.13555 -7.59446,1.58424 -10.32814,4.27766 -2.97218,2.72436 -4.83699,6.52799 -5.36725,10.50889 -0.94527,5.55952 1.08709,11.47946 5.19209,15.33313 1.98537,1.88486 4.4741,3.27289 7.18494,4.03266 2.17723,0.60894 4.67444,0.78527 6.97411,0.3568 3.38799,-0.59619 6.75997,-2.22683 9.14411,-4.82321 3.08716,-3.21506 4.93105,-7.64983 4.72367,-12.13115 -0.0653,-2.77864 -0.76675,-5.59257 -2.03525,-8.12314 -0.79524,1.49607 -2.22256,2.63359 -3.77149,3.28125 -2.31429,0.86339 -5.1197,0.43877 -6.88331,-1.35451 -2.04828,-1.76814 -2.81213,-4.94092 -1.57055,-7.38698 0.6266,-1.38693 1.75373,-2.59341 3.14527,-3.1921 -2.0351,-0.73094 -4.26467,-0.83046 -6.4082,-0.7793 z m -66.316411,2.33789 c 1.432953,0.6391 3.100327,1.42957 3.546875,3.08398 0.557113,1.94997 -0.389122,4.50654 -2.517578,4.98047 -1.415334,0.33016 -3.042316,0.60386 -4.324218,-0.27343 -1.65195,-0.88256 -2.348826,-2.97589 -1.941407,-4.73438 0.571971,-1.18695 1.999577,-1.53773 3.048136,-2.18006 0.681156,-0.28187 1.357947,-0.81663 2.04204,-0.94664 l 0.09018,0.0432 z m 2.59375,36.48633 c 0.447429,0.46475 0.375517,1.57372 -0.290025,1.74906 -0.804021,0.0247 -0.784248,-1.08686 -0.549818,-1.62406 0.09008,-0.30136 0.672084,-0.40049 0.839843,-0.125 z m 150.796871,4.74804 c -0.32327,0.49173 -0.85636,1.32507 -1.51973,0.99752 -0.63879,-0.48345 -0.0162,-1.19045 0.47809,-1.49574 0.5622,-0.40485 1.22884,-0.64416 1.83071,-0.98615 -0.26302,0.49479 -0.52604,0.98958 -0.78907,1.48437 z m -149.269527,2.17969 c 2.313761,0.0113 4.968957,0.77081 6.158203,2.92774 0.667539,1.30195 0.556179,3.13501 -0.542968,4.16601 -2.316642,1.61988 -5.45294,1.1044 -7.808594,-0.15625 -1.28506,-0.57082 -2.045527,-1.95909 -1.931242,-3.34606 -0.07951,-1.58149 1.296527,-2.82099 2.664635,-3.34225 0.467809,-0.1672 0.965713,-0.23108 1.459966,-0.24919 z m 40.267578,1.5332 c 0.461455,0.47643 1.233846,0.83554 1.389142,1.50052 0.02068,0.63435 -0.768084,0.83626 -1.13663,0.36349 -0.722377,-0.63838 -1.226344,-1.44474 -1.502512,-2.36791 0.416667,0.16797 0.833334,0.33594 1.25,0.5039 z m 61.654299,-0.41406 c 0.66269,0.24041 0.87348,1.25676 0.57617,1.85547 -0.69608,0.53472 -1.28087,-0.40594 -1.28906,-1.04297 -0.0876,-0.42326 0.25217,-0.95469 0.71289,-0.8125 z m 41.125,2.39453 c 0.75462,-0.0573 0.80404,0.99769 0.20117,1.27735 -0.49231,0.43535 -1.56875,0.0902 -1.29492,-0.6543 0.22625,-0.37106 0.6715,-0.59313 1.09375,-0.62305 z m -66.14649,14.47071 c 0.65187,-0.0264 0.9919,0.93907 0.32422,1.1914 -0.54137,0.1608 -1.37318,0.10748 -1.40625,-0.60156 0.17223,-0.44516 0.62787,-0.63106 1.08203,-0.58984 z m -19.84375,9.52539 c 0.65143,-0.0279 0.99545,0.94599 0.32227,1.18945 -0.54056,0.16238 -1.37287,0.1092 -1.4043,-0.59961 0.17223,-0.44516 0.62787,-0.63106 1.08203,-0.58984 z"
           sodipodi:nodetypes="cccccccccccccccccccccccccccccccccccccccccccccccccccccccccccccccccsccccccccssccccccccccccccccccccsccccccccccssccccccccsccccccccsscccccccccccccccccccccccccccccccccccccccccccccccccccccccccccccccc" />
        <path
           id="path1040"
           style="fill:#5ada6b;stroke-width:0;stroke-miterlimit:4;stroke-dasharray:none"
           d="m 139.75,93.527344 c -8.53746,0.235829 -17.0801,1.737001 -25.1068,4.7747 -5.36943,2.052036 -10.47593,4.815196 -15.039298,8.318896 -3.58012,2.69288 -7.033624,5.6173 -9.809811,9.15739 -2.301855,2.79282 -4.401874,5.75176 -6.264794,8.85253 -0.458631,0.74386 -1.374644,0.50713 -2.049562,0.27388 -5.219759,-1.07543 -10.635306,-1.25069 -15.902159,-0.79644 -5.646105,0.54159 -11.203283,1.86272 -16.332083,4.33084 -3.437643,1.60007 -6.867088,3.29516 -9.850415,5.66641 -5.8454,4.42036 -10.724983,10.11911 -14.526038,16.37729 -1.688655,2.67017 -2.99242,5.55236 -4.486729,8.32783 -0.447665,0.78776 -1.209399,1.94018 -2.267077,1.48816 -1.131615,-0.61229 -1.300037,-2.06027 -1.61088,-3.18525 -0.863304,-4.33385 -0.918391,-8.82625 -0.310084,-13.19804 0.707993,-4.33738 2.109078,-8.58031 4.172166,-12.46354 1.705846,-3.24433 4.155358,-5.99249 6.557492,-8.7275 0.594225,-0.60707 1.037191,-1.39937 0.855369,-2.27528 -0.09247,-1.60967 -1.947359,-3.13099 -3.492188,-2.29297 -2.758595,1.83128 -5.048685,4.26985 -7.329079,6.64813 -4.07093,4.26626 -7.2116261,9.51878 -9.4033425,14.96906 -3.0023426,7.5282 -4.2291967,15.942 -2.7109375,23.98633 1.1203072,5.78914 3.7701667,11.18526 7.863503,15.44002 3.935552,4.11631 9.193082,6.9948 14.802513,8.22599 1.325772,0.3176 2.682686,0.47682 4.03125,0.61133 0.996197,0.33921 0.809458,1.61095 1.111613,2.42243 0.903086,4.10641 2.759609,8.03805 5.660885,11.11309 2.734435,3.13802 6.479904,5.33823 10.542164,6.2365 3.967301,0.91904 7.985374,1.11965 12.048114,0.73854 2.042375,-0.17783 4.023019,-0.58583 5.783708,-1.70392 1.520287,-0.84432 2.728882,-2.14118 3.545327,-3.6694 0.799607,-1.39854 1.44212,-2.80211 1.714191,-4.36903 0.123137,-0.6792 0.890953,-0.85308 1.430544,-0.54213 2.142999,0.57595 4.286162,1.06409 6.452516,1.33447 0.954977,-0.10603 1.560723,0.72996 1.904755,1.50129 1.652831,2.63909 3.745759,5.10517 6.487478,6.65855 2.884835,1.73396 6.193253,2.89029 9.480623,3.20444 5.041306,0.54663 10.125946,0.51503 15.190146,0.45351 2.38993,-0.008 4.91416,-0.14786 6.98823,-1.47528 2.06122,-1.18007 3.28422,-3.61659 2.93979,-5.97503 -0.0723,-0.95195 -0.48927,-1.91981 -0.21758,-2.86944 1.31822,-0.19386 2.62851,0.29747 3.9391,0.41115 4.10046,0.52547 8.22387,0.90325 12.3667,1.05172 1.53784,0.23972 2.52964,1.60905 3.83147,2.33663 3.70417,2.53185 8.31449,3.36922 12.67132,3.5716 3.59592,0.12238 7.19606,0.28534 10.69336,-0.67578 2.38006,-0.69722 4.72959,-2.49424 5.1875,-5.05274 0.12585,-0.84424 0.1808,-1.69676 0.27344,-2.54492 4.45488,-1.09544 8.87237,-2.29011 13.0885,-4.10195 4.98142,-2.10058 9.80213,-4.71759 13.89278,-8.32039 4.61455,-3.96408 8.63589,-8.77124 11.25888,-14.25094 2.99473,-6.069 4.44857,-12.85373 4.33922,-19.56145 -0.13217,-5.82042 -1.14835,-11.65598 -2.59469,-17.31648 -1.19951,-4.65869 -2.84735,-9.30433 -5.79792,-13.16433 -3.50376,-4.71651 -8.26798,-8.68633 -13.94349,-10.44556 -1.57917,-0.50771 -3.09229,-0.98935 -4.77747,-1.0487 -1.42313,-0.29234 -2.2854,-1.62299 -3.33952,-2.50662 -3.59865,-3.53008 -7.68857,-6.57039 -12.21191,-8.81228 -6.07362,-3.174045 -12.67811,-5.340473 -19.42651,-6.3355 -4.04885,-0.643028 -8.17788,-0.906832 -12.30428,-0.801816 z m -0.34375,5.230468 c 4.08224,0.02551 8.1994,-0.03437 12.22426,0.747411 8.13504,1.350427 16.13222,4.225677 22.79332,9.170557 2.98056,2.1832 5.70005,4.72052 8.02867,7.59171 0.31496,0.29433 0.57163,0.88853 1.0475,0.5411 2.00108,-0.16563 4.00817,0.2708 5.95406,0.70057 5.55425,1.44007 10.36374,5.05866 13.93092,9.47993 2.0468,2.62666 3.50584,5.68214 4.56704,8.82608 1.08486,3.48954 0.88954,7.19904 0.78658,10.80408 -0.25359,3.58721 -1.59741,7.03878 -3.44368,10.09755 -1.06732,1.8382 -2.58351,3.3433 -3.8458,5.03561 -0.32617,0.61489 -0.41774,1.35066 -0.77533,1.96951 -0.29514,0.69701 -0.82994,1.25946 -0.98096,2.01135 -0.90869,1.8483 -2.14002,3.52319 -3.27147,5.23978 -1.99734,2.61124 -4.32251,4.95607 -6.65483,7.26655 -2.39199,2.24664 -4.83223,4.55242 -7.7881,6.04011 -0.61648,0.22468 -1.51445,0.7915 -2.04361,0.16175 -0.34803,-0.81572 0.61082,-1.42493 1.02323,-2.01899 1.09538,-1.3883 2.06488,-3.08373 2.03217,-4.90153 -0.12329,-1.51234 -0.93391,-3.34281 -2.6328,-3.53852 -1.50165,-0.3075 -3.16546,0.41103 -3.79581,1.8447 -0.67189,1.16699 -0.13996,2.65697 -0.97701,3.76821 -1.13207,1.61394 -2.96609,2.58411 -4.74335,3.33309 -3.34356,1.27273 -7.11281,1.32325 -10.54229,0.36472 -1.31555,-0.44841 -2.7808,-0.79192 -3.81458,-1.7697 -0.37106,-0.9036 -1.56917,-1.41604 -1.51954,-2.52539 0.23465,-0.46164 0.63023,-0.68514 0.46257,-1.30273 0.0517,-1.28599 -0.40789,-2.76682 -1.72042,-3.25962 -1.31019,-0.71188 -3.02518,-0.54077 -4.09395,0.52824 -1.76194,1.68046 -1.49445,4.51355 -0.40586,6.48999 1.65468,3.33612 4.76475,5.75036 8.22038,7.01372 0.71955,0.3698 1.86976,0.51922 2.06267,1.43665 -0.0654,0.87118 -1.1872,0.90458 -1.85604,1.0449 -6.06591,0.92667 -12.22595,0.61842 -18.33878,0.6007 -4.71665,-0.0525 -9.41211,-0.66337 -14.0491,-1.49108 -4.00503,-0.738 -7.93019,-1.92758 -11.62382,-3.65357 -1.76473,-0.52732 -3.19381,-1.74357 -4.73901,-2.69945 -4.47914,-2.81658 -8.27604,-6.57783 -11.770199,-10.5183 -1.555564,-1.75173 -2.893713,-3.67858 -4.054771,-5.71042 -0.708733,-1.00475 -1.11927,-2.18909 -1.87101,-3.15677 -1.51948,-3.08087 -3.065833,-6.17484 -4.049839,-9.47714 -0.860056,-2.41871 -1.442542,-4.91727 -1.93724,-7.43258 -0.812349,-3.43315 -0.559437,-6.98775 -0.402279,-10.4773 0.02251,-1.08511 0.277124,-2.13508 0.680263,-3.13601 0.428315,-2.12449 1.601712,-4.00252 2.469201,-5.96653 1.120012,-2.14372 2.291269,-4.3183 3.939113,-6.10614 0.508788,-1.31845 1.610627,-2.38971 2.52151,-3.47809 2.338697,-2.49231 4.829322,-4.86842 7.579691,-6.90159 0.37619,-0.31919 0.91891,-0.37204 1.12731,-0.85274 1.03644,-0.89845 2.26621,-1.56154 3.38047,-2.36507 1.35972,-0.82345 2.74102,-1.72972 4.30703,-2.08806 0.27422,-0.0332 0.43758,-0.40155 0.77539,-0.375 0.90719,-0.64277 1.78704,-1.34049 2.83985,-1.74609 3.46475,-1.47765 7.06977,-2.68011 10.773,-3.38782 0.4303,-0.14134 1.02958,-0.002 1.3764,-0.16587 0.31008,-0.453663 0.77144,0.005 1.17872,-0.23928 2.23497,-0.603656 4.61655,-0.907484 6.94922,-1.03125 0.52291,0.0779 1.005,-0.0063 1.47789,-0.197816 1.07015,-0.141111 2.15583,-0.105217 3.23305,-0.138122 z m 47.17383,27.587888 c -1.57472,0.19652 -3.1254,0.58043 -4.6582,0.97071 -0.66996,0.92765 -0.56747,2.18932 -0.75185,3.27931 -0.52329,5.30911 -0.60392,10.73368 0.42838,16.01553 0.79145,4.29081 2.16314,8.4476 3.71409,12.54891 3.42769,-0.17465 7.02482,-0.72398 9.846,-2.82956 4.46608,-3.25271 6.75589,-9.00128 6.20742,-14.44607 -0.24876,-2.62798 -1.01935,-5.11138 -2.31904,-7.40015 -1.11671,0.95807 -2.59746,1.68214 -4.09491,1.58035 -1.96656,-0.30817 -3.86401,-1.6907 -4.25392,-3.72703 -0.4273,-1.75644 0.33059,-3.63238 1.675,-4.79082 -1.72635,-0.72727 -3.61013,-1.12775 -5.47869,-1.22193 -0.10476,0.007 -0.20952,0.0138 -0.31428,0.0207 z M 73.041016,129 c 2.488595,0.22246 4.985263,0.47417 7.445312,0.9082 0.708023,0.0699 0.255854,0.97721 0.183594,1.42578 -1.277746,4.1867 -2.636204,8.32159 -3.120264,12.68567 -0.428785,3.83019 -0.459814,7.83649 -0.08349,11.71059 0.386214,4.11202 1.485676,8.111 2.793038,12.01454 0.219538,0.65645 0.33751,1.38627 0.535718,2.0228 0.781289,0.83451 0.968212,2.04393 1.589762,2.99205 1.735295,3.33784 3.931305,6.4529 6.011793,9.61098 0.597985,0.74851 1.031579,1.64722 1.302742,2.55322 0.570743,0.22266 0.481967,0.97826 0.857481,1.40169 1.475244,2.53686 2.945382,5.19667 5.085851,7.30912 2.025881,2.20553 4.278217,4.17939 6.490757,6.18972 1.26213,1.34923 2.50988,2.71375 3.79247,4.04478 -1.78409,-0.0139 -3.59704,-0.0621 -5.28711,-0.70312 -2.619603,-0.91921 -5.183657,-2.13091 -7.380421,-3.84458 -2.426826,-2.06735 -4.622299,-4.46128 -6.274003,-7.19681 -0.946994,-1.72431 -1.408918,-3.64738 -2.086313,-5.47846 -0.283955,-0.7454 -0.905186,-1.31265 -1.130852,-2.07722 -0.580536,-0.79343 -1.310635,-1.81331 -2.433458,-1.63889 -1.090625,-0.0773 -1.706742,1.0188 -2.230151,1.77259 -1.143652,0.47829 -2.455985,0.33578 -3.675736,0.41649 -0.644301,0.0379 -1.655246,-0.065 -1.635075,-0.91394 -0.306954,-1.73391 -0.712331,-3.44777 -1.392268,-5.03332 -1.399328,-2.9164 -3.446594,-5.49566 -5.822266,-7.67774 -1.845561,-0.96452 -3.602477,-2.22787 -5.709673,-2.56108 -2.236528,-0.37967 -4.544461,-0.39106 -6.790327,-0.0854 -0.416198,0.0494 -0.75815,0.17535 -0.865234,0.5957 -0.473307,0.21121 -0.575491,0.87534 -0.673945,1.3575 -0.142804,1.32685 0.833893,2.79147 2.263684,2.74893 1.752516,0.237 3.620466,0.0891 5.263776,0.82716 0.4196,0.31765 0.991134,0.065 1.408203,0.45899 0.48644,0.41327 1.052524,0.69612 1.664319,0.82072 0.343728,0.28153 0.07772,0.78004 0.621583,0.88578 0.888702,0.62127 1.858012,1.34599 2.262927,2.36576 1.046997,1.32846 1.611619,2.97588 2.209682,4.54196 0.500162,1.43723 0.600762,2.98206 0.706333,4.48851 0.09301,1.12295 -1.113455,1.58624 -1.89875,2.07217 -2.321184,1.14664 -4.592709,2.40676 -6.784844,3.78408 1.434908,1.18741 3.281719,1.95305 4.367188,3.51758 0.455108,0.74878 -0.339253,1.48661 -1.085775,1.45386 -1.174132,0.15902 -2.450463,-0.0433 -3.309334,-0.92451 -1.990613,-1.64486 -4.809522,-2.32342 -7.319735,-1.68755 -1.074934,0.41098 -2.150884,1.22267 -3.369141,0.85156 -3.056179,-0.95716 -5.625587,-3.13536 -7.523596,-5.67077 -1.710322,-2.36276 -2.853619,-5.14702 -3.168846,-8.05455 -0.242528,-1.29147 -0.240804,-2.67179 -0.801698,-3.87624 -1.103302,-1.00878 -0.948034,-2.8036 -2.220865,-3.69105 -0.549165,-0.34749 -1.330627,-0.24568 -1.816245,-0.76208 -0.637857,-0.7215 0.217925,-1.61188 0.507081,-2.30296 0.418099,-0.57079 0.147397,-0.51031 -0.243409,-0.13649 -1.847139,1.27489 -3.966702,2.10761 -6.043312,2.93478 -2.393442,0.96649 -5.034855,0.96447 -7.576072,0.96997 -1.740661,-0.0454 -3.498996,-0.55997 -4.960694,-1.50827 -0.960915,-0.86922 -1.784289,-1.9339 -2.339844,-3.09375 -0.958782,-0.83966 -1.32652,-2.15135 -1.865234,-3.27148 -1.202681,-2.91822 -2.1191272,-5.99076 -2.22834,-9.16516 -0.033311,-1.56784 -0.2269429,-3.20291 0.2381058,-4.72351 0.1362205,-0.57501 0.6473942,-0.80832 1.1347652,-1.04102 0.147551,0.60157 0.122909,1.2034 0.0078,1.80664 0.510814,0.52772 0.358561,1.37924 0.674483,2.02439 0.425472,1.12812 0.516823,2.34401 1.099325,3.41568 0.338132,0.80386 0.588341,1.64513 1.211409,2.28921 0.576246,0.6716 1.048213,1.51662 1.922948,1.8102 1.101026,0.93398 2.635699,0.98599 3.990184,0.70391 1.342918,-0.22152 2.562583,-0.88713 3.549302,-1.80921 0.431822,-0.17248 0.338931,-0.75701 0.721464,-1.02557 0.387814,-0.28356 0.468894,-0.69551 0.602298,-1.12374 0.147263,-0.36239 0.350768,-0.73063 0.675853,-0.95284 0.266067,-1.10187 1.008479,-2.08817 1.636718,-2.96484 -0.341484,-0.58391 0.450394,-1.01875 0.905184,-0.66132 1.051377,0.61252 1.705808,2.04757 3.067472,1.98944 1.259933,-0.11022 2.568655,-0.72251 3.315954,-1.76414 0.963219,-1.3764 0.27851,-3.23257 -0.786018,-4.32837 -0.806136,-0.71909 -2.268751,-0.50342 -2.785795,-1.57155 -0.195686,-0.5523 0.361433,-0.67118 0.498047,-1.02344 0.497445,-0.93022 1.235205,-1.73686 1.947266,-2.48046 0.385068,-1.24835 1.858042,-1.75346 2.285156,-2.95508 0.608071,-0.58778 1.250889,-1.1448 1.703518,-1.87105 0.360382,-0.58838 0.569511,-0.27853 0.97031,-0.8145 0.426316,-0.11737 0.111012,-0.77947 0.644531,-0.85156 0.142306,-0.48098 0.739939,-0.46777 1.028288,-0.80063 0.22783,-0.38605 1.089617,-0.18015 0.942415,-0.77359 0.246484,-0.73226 1.095509,-0.9133 1.675782,-1.28125 0.0439,-0.49114 0.647966,-0.5843 1.041015,-0.46094 0.191057,-0.77084 1.095208,-1.05763 1.590625,-1.62254 1.725176,-1.16963 3.657648,-2.00883 5.514649,-2.94985 1.443202,-0.68559 2.922118,-1.36681 4.496289,-1.67566 0.397622,0.049 0.641328,-0.11444 0.886718,-0.40234 1.740313,-0.90154 3.708623,-1.26325 5.614025,-1.65824 3.260644,-0.50778 6.567815,-0.84768 9.870713,-0.78 0.483296,0.009 0.931068,0.21707 1.381482,-0.0239 0.167067,-0.0359 0.340989,-0.0164 0.510734,-0.0262 z m 42.968754,2.66797 c -3.80892,0.13555 -7.59446,1.58424 -10.32814,4.27766 -2.97218,2.72436 -4.83699,6.52799 -5.36725,10.50889 -0.94527,5.55952 1.08709,11.47946 5.19209,15.33313 1.98537,1.88486 4.4741,3.27289 7.18494,4.03266 2.17723,0.60894 4.67444,0.78527 6.97411,0.3568 3.38799,-0.59619 6.75997,-2.22683 9.14411,-4.82321 3.08716,-3.21506 4.93105,-7.64983 4.72367,-12.13115 -0.0653,-2.77864 -0.76675,-5.59257 -2.03525,-8.12314 -0.79524,1.49607 -2.22256,2.63359 -3.77149,3.28125 -2.31429,0.86339 -5.1197,0.43877 -6.88331,-1.35451 -2.04828,-1.76814 -2.81213,-4.94092 -1.57055,-7.38698 0.6266,-1.38693 1.75373,-2.59341 3.14527,-3.1921 -2.0351,-0.73094 -4.26467,-0.83046 -6.4082,-0.7793 z m -60.316411,5.90039 c 0.570988,1.23283 0.436142,-0.64199 0,0 z m 1.078125,3.13672 c -0.467026,0.94854 -1.185316,1.97335 -0.748046,3.07422 0.307668,1.65629 1.301057,3.36856 3.044662,3.7893 2.254087,0.62681 4.881638,0.12682 6.653352,-1.42802 1.804238,-1.6406 1.743599,-4.70385 0.02015,-6.37907 -0.48056,-0.63174 -1.231227,-0.92235 -2.014032,-0.85908 -2.004336,-0.0445 -4.009852,-0.0211 -6.014678,-0.0274 -0.313802,0.61003 -0.627605,1.22005 -0.941407,1.83008 z m -13.724609,1.49609 c -1.383138,0.11075 -2.884299,0.44284 -3.837891,1.52735 -0.385051,0.12766 -0.820083,0.3444 -0.761718,0.82031 -0.227996,1.00989 -1.141519,1.84122 -0.868498,2.95102 0.02818,1.32948 0.742737,2.57442 1.905958,3.22967 1.092023,0.65349 2.457335,0.45122 3.664149,0.33699 2.142318,-0.27195 4.165931,-1.92756 4.372996,-4.15796 0.280647,-1.8597 -0.961004,-3.75753 -2.623433,-4.52378 -0.595395,-0.19134 -1.231472,-0.21221 -1.851563,-0.1836 z m 160.037105,33.03906 c -0.32327,0.49173 -0.85636,1.32507 -1.51973,0.99752 -0.63879,-0.48345 -0.0162,-1.19045 0.47809,-1.49574 0.5622,-0.40485 1.22884,-0.64416 1.83071,-0.98615 -0.26302,0.49479 -0.52604,0.98958 -0.78907,1.48437 z m -109.001949,3.71289 c 0.461455,0.47643 1.233846,0.83554 1.389142,1.50052 0.02068,0.63435 -0.768084,0.83626 -1.13663,0.36349 -0.722377,-0.63838 -1.226344,-1.44474 -1.502512,-2.36791 0.416667,0.16797 0.833334,0.33594 1.25,0.5039 z m 102.779299,1.98047 c 0.75462,-0.0573 0.80404,0.99769 0.20117,1.27735 -0.49231,0.43535 -1.56875,0.0902 -1.29492,-0.6543 0.22625,-0.37106 0.6715,-0.59313 1.09375,-0.62305 z m -146.201174,3.36133 c -1.074988,0.4269 -2.32522,1.45171 -2.082031,2.7461 0.604637,-0.5315 1.675768,0.009 1.669922,0.79296 -0.464739,0.31674 0.686215,0.60191 0.03145,1.08749 0.601294,0.43839 1.508174,0.70866 2.296675,0.85001 0.637071,-0.55469 1.623375,-0.14118 2.398437,-0.13476 0.62614,0.21699 0.598766,-0.1891 0.75586,-0.64649 0.375435,-0.50456 0.584418,-1.10053 0.476562,-1.7207 0.345184,-0.38161 0.296444,-0.59272 -0.167969,-0.86523 -0.389727,-0.38248 -1.05596,-0.28933 -1.318359,-0.80078 -1.255958,-0.27341 -2.495557,-0.6311 -3.640259,-1.23049 -0.13612,-0.0366 -0.275729,-0.10292 -0.420288,-0.0781 z m 80.054684,11.10938 c 0.65187,-0.0264 0.9919,0.93907 0.32422,1.1914 -0.54137,0.1608 -1.37318,0.10748 -1.40625,-0.60156 0.17223,-0.44516 0.62787,-0.63106 1.08203,-0.58984 z m -19.84375,9.52539 c 0.65143,-0.0279 0.99545,0.94599 0.32227,1.18945 -0.54056,0.16238 -1.37287,0.1092 -1.4043,-0.59961 0.17223,-0.44516 0.62787,-0.63106 1.08203,-0.58984 z"
           sodipodi:nodetypes="ccccccccccccccccccccccccccccccccccccccccccccccccccccccccccccccccccccccccccccccccccccccccccccccccccccccccccccccccccccccccccccccccccccccccccccccccccccccccccccccccccccccccccccccccccccccccccccccccccccccccccccccccccccccccccccccccccccccccccccccccccsccccccsscccccccccccccccccccccccsccccccccccsscccccccc" />
        <path
           id="path1038"
           style="fill:#37d577;stroke-width:0;stroke-miterlimit:4;stroke-dasharray:none"
           d="m 139.75,93.527344 c -8.53746,0.235829 -17.0801,1.737001 -25.1068,4.7747 -5.36943,2.052036 -10.47593,4.815196 -15.039298,8.318896 -3.58012,2.69288 -7.033624,5.6173 -9.809811,9.15739 -2.301855,2.79282 -4.401874,5.75176 -6.264794,8.85253 -0.458631,0.74386 -1.374644,0.50713 -2.049562,0.27388 -5.219759,-1.07543 -10.635306,-1.25069 -15.902159,-0.79644 -5.646105,0.54159 -11.203283,1.86272 -16.332083,4.33084 -3.437643,1.60007 -6.867088,3.29516 -9.850415,5.66641 -5.8454,4.42036 -10.724983,10.11911 -14.526038,16.37729 -1.688655,2.67017 -2.99242,5.55236 -4.486729,8.32783 -0.447665,0.78776 -1.209399,1.94018 -2.267077,1.48816 -1.131615,-0.61229 -1.300037,-2.06027 -1.61088,-3.18525 -0.863304,-4.33385 -0.918391,-8.82625 -0.310084,-13.19804 0.707993,-4.33738 2.109078,-8.58031 4.172166,-12.46354 1.705846,-3.24433 4.155358,-5.99249 6.557492,-8.7275 0.594225,-0.60707 1.037191,-1.39937 0.855369,-2.27528 -0.09247,-1.60967 -1.947359,-3.13099 -3.492188,-2.29297 -2.758595,1.83128 -5.048685,4.26985 -7.329079,6.64813 -4.07093,4.26626 -7.2116261,9.51878 -9.4033425,14.96906 -3.0023426,7.5282 -4.2291967,15.942 -2.7109375,23.98633 1.1203072,5.78914 3.7701667,11.18526 7.863503,15.44002 3.935552,4.11631 9.193082,6.9948 14.802513,8.22599 1.325772,0.3176 2.682686,0.47682 4.03125,0.61133 0.996197,0.33921 0.809458,1.61095 1.111613,2.42243 0.903086,4.10641 2.759609,8.03805 5.660885,11.11309 2.734435,3.13802 6.479904,5.33823 10.542164,6.2365 3.967301,0.91904 7.985374,1.11965 12.048114,0.73854 2.042375,-0.17783 4.023019,-0.58583 5.783708,-1.70392 1.520287,-0.84432 2.728882,-2.14118 3.545327,-3.6694 0.799607,-1.39854 1.44212,-2.80211 1.714191,-4.36903 0.123137,-0.6792 0.890953,-0.85308 1.430544,-0.54213 2.142999,0.57595 4.286162,1.06409 6.452516,1.33447 0.954977,-0.10603 1.560723,0.72996 1.904755,1.50129 1.652831,2.63909 3.745759,5.10517 6.487478,6.65855 2.884835,1.73396 6.193253,2.89029 9.480623,3.20444 5.041306,0.54663 10.125946,0.51503 15.190146,0.45351 2.38993,-0.008 4.91416,-0.14786 6.98823,-1.47528 2.06122,-1.18007 3.28422,-3.61659 2.93979,-5.97503 -0.0723,-0.95195 -0.48927,-1.91981 -0.21758,-2.86944 1.31822,-0.19386 2.62851,0.29747 3.9391,0.41115 4.10046,0.52547 8.22387,0.90325 12.3667,1.05172 1.53784,0.23972 2.52964,1.60905 3.83147,2.33663 3.70417,2.53185 8.31449,3.36922 12.67132,3.5716 3.59592,0.12238 7.19606,0.28534 10.69336,-0.67578 2.38006,-0.69722 4.72959,-2.49424 5.1875,-5.05274 0.12585,-0.84424 0.1808,-1.69676 0.27344,-2.54492 4.45488,-1.09544 8.87237,-2.29011 13.0885,-4.10195 4.98142,-2.10058 9.80213,-4.71759 13.89278,-8.32039 4.61455,-3.96408 8.63589,-8.77124 11.25888,-14.25094 2.99473,-6.069 4.44857,-12.85373 4.33922,-19.56145 -0.13217,-5.82042 -1.14835,-11.65598 -2.59469,-17.31648 -1.19951,-4.65869 -2.84735,-9.30433 -5.79792,-13.16433 -3.50376,-4.71651 -8.26798,-8.68633 -13.94349,-10.44556 -1.57917,-0.50771 -3.09229,-0.98935 -4.77747,-1.0487 -1.42313,-0.29234 -2.2854,-1.62299 -3.33952,-2.50662 -3.59865,-3.53008 -7.68857,-6.57039 -12.21191,-8.81228 -6.07362,-3.174045 -12.67811,-5.340473 -19.42651,-6.3355 -4.04885,-0.643028 -8.17788,-0.906832 -12.30428,-0.801816 z m 2.38477,5.154297 c 3.83532,0.02736 7.68404,0.249862 11.43621,1.089811 6.78172,1.428688 13.54065,3.660448 19.25559,7.679278 3.71592,2.50365 6.9671,5.63759 9.91306,8.99277 1.03448,0.39183 2.15953,0.2003 3.27161,0.40756 6.63468,0.77063 12.73438,4.45725 16.96258,9.55797 2.81741,3.5107 4.81697,7.72071 5.61407,12.15933 0.6042,3.79638 0.34397,7.68504 -0.25983,11.46371 -0.34903,2.13487 -1.59875,3.96133 -2.39724,5.93946 -0.32138,0.77427 -0.601,1.56948 -1.21387,2.17476 -1.63921,1.87917 -2.92815,4.06372 -3.88883,6.35957 -0.0387,0.6562 -0.41523,1.17916 -0.85937,1.63281 -0.56604,1.56953 -1.98126,2.69234 -2.37109,4.33594 -0.11854,0.66468 -0.85145,0.68904 -1.11869,1.24496 -1.66788,2.13537 -3.60156,4.05018 -5.46192,6.01629 -2.63407,2.55583 -5.39137,5.05676 -8.60103,6.87352 -0.39862,0.53393 -1.03975,0.76776 -1.68164,0.9121 -0.40882,0.75586 -1.54358,0.33426 -2.05665,1.0254 -0.33464,0.22497 -0.93878,0.67733 -1.17382,0.14257 -0.42155,-0.55994 0.40412,-1.10139 0.71602,-1.53314 1.85308,-2.00052 4.07606,-4.03212 4.53984,-6.85553 0.32609,-1.69058 -0.52439,-3.75014 -2.33654,-4.13276 -1.68291,-0.47948 -3.68645,0.57701 -3.96946,2.36686 -0.17796,1.07398 0.0719,2.33679 -0.80131,3.18034 -2.30743,2.92808 -6.12446,4.14675 -9.7362,4.2524 -3.10579,0.0548 -6.49282,-0.17087 -9.06838,-2.09939 -0.93787,-0.75078 -1.93946,-1.77797 -1.74244,-3.08956 0.0212,-1.17186 0.40794,-2.48955 -0.48926,-3.46724 -1.49257,-1.88523 -4.76011,-1.29105 -5.77776,0.79114 -0.99477,2.027 -0.0849,4.36608 0.97603,6.17282 1.62072,2.69946 4.18785,4.79735 7.16296,5.83388 1.31463,0.59198 2.77316,0.81317 4.07142,1.42198 0.60194,0.40215 0.10011,1.16939 -0.49219,1.24219 -2.08139,0.82052 -4.36653,0.75709 -6.5601,0.98395 -5.38746,0.29303 -10.79396,0.37347 -16.18617,0.17158 -3.7738,-0.32027 -7.56352,-0.61042 -11.29072,-1.30077 -1.13962,-0.37731 -2.37962,-0.13659 -3.50793,-0.51492 -0.53171,-0.47036 -1.31889,-0.24788 -1.94691,-0.53361 -3.92669,-1.1567 -7.78678,-2.66738 -11.25786,-4.86308 -1.65427,-1.06262 -3.3299,-2.10739 -4.91688,-3.26544 -1.51371,-1.23109 -2.82604,-2.70654 -4.43109,-3.8242 -0.684114,-0.0122 -0.635923,-0.76134 -1.029568,-1.13448 -0.761794,-1.01892 -1.789474,-1.85912 -2.378631,-2.99442 -1.079887,-0.6831 -1.650577,-1.92015 -2.419922,-2.9043 -2.387147,-3.58867 -4.594855,-7.31095 -6.28962,-11.28226 -0.704745,-1.4732 -1.202339,-3.05795 -1.817953,-4.51195 -0.739465,-1.44629 -1.173603,-3.04803 -1.458833,-4.63938 -0.207495,-0.67807 -0.283781,-0.31815 -0.40625,0.11914 -0.448125,0.71466 -0.253517,1.66213 -0.333984,2.475 -0.08782,0.95465 0.218331,1.98092 -0.164063,2.88632 -0.539979,0.20265 0.30641,0.53665 0.144473,0.97666 0.105177,0.57758 -0.346441,1.36798 -0.98627,0.98038 -0.344624,-0.47976 -0.400173,-1.3863 0.09677,-1.74981 -0.0269,-0.0465 -0.566922,-0.48927 -0.480182,-0.88124 -0.29826,-3.22554 -0.192291,-6.47995 -0.07983,-9.71415 0.137554,-3.3218 0.989503,-6.5697 1.912657,-9.74761 1.724643,-5.55142 4.296434,-10.91726 8.021283,-15.4111 2.81236,-3.23659 5.802214,-6.35957 9.186203,-9.00627 4.93419,-3.60156 10.32777,-6.63145 16.08931,-8.68829 4.0816,-1.31699 8.31046,-2.1218 12.52035,-2.91171 3.80473,-0.736115 7.68654,-0.816272 11.54984,-0.805839 z m 44.64062,27.724609 c -1.65502,0.13834 -3.36883,0.34776 -4.86914,1.09961 -0.389,0.90447 -0.38144,1.99325 -0.53409,2.97853 -0.36532,4.18141 -0.37505,8.41845 -0.20425,12.63986 0.30515,3.89078 1.55647,7.8334 2.73615,11.60398 0.4943,1.36959 0.84736,2.81503 1.54125,4.09794 0.43789,0.41539 1.18015,0.18914 1.73238,0.20064 3.78136,-0.265 7.52192,-1.82915 10.0997,-4.65557 3.11871,-3.29395 4.39502,-7.99329 4.02918,-12.45284 -0.14145,-2.56472 -0.99061,-5.07307 -2.26751,-7.28949 -1.08962,0.77908 -2.39631,1.40503 -3.75218,1.45728 -2.74789,-0.0534 -5.31364,-2.83303 -4.67555,-5.60767 0.25038,-1.14181 0.93916,-2.11557 1.67773,-2.98633 -1.74789,-0.64019 -3.63651,-1.15906 -5.51367,-1.08594 z m -116.886718,2.68359 c 3.53578,0.0433 7.149452,-0.0622 10.585123,0.89239 0.631025,0.15745 0.451309,0.73271 0.285846,1.1866 -1.319108,3.95112 -2.349216,8.00897 -3.013369,12.12191 -0.539184,4.28679 -0.613741,8.62092 -0.115413,12.93778 0.445433,3.75863 1.364725,7.57691 2.700022,11.16167 2.026041,5.45288 5.030599,10.57001 8.526153,15.21944 0.623341,0.96688 1.555565,1.76332 1.943747,2.86107 -0.444014,0.27158 0.324337,0.77533 0.392648,1.15905 1.430616,2.72498 3.459095,5.07811 5.405975,7.44275 0.86218,1.06184 1.851498,2.00065 2.922512,2.84382 0.838944,0.76562 1.617024,1.67176 2.667534,2.1247 0.8367,0.83718 1.10599,2.11079 2.10382,2.82224 0.70903,0.61089 1.5565,1.06655 2.15204,1.80276 -0.26141,0.81373 -1.18603,0.68619 -1.86332,0.63322 -4.07046,-0.19051 -7.789293,-2.16643 -11.088052,-4.4174 -2.431629,-1.69729 -4.709698,-3.73022 -6.192456,-6.32938 -0.475962,-0.76643 -1.390358,-1.33706 -1.395232,-2.32785 -0.188633,-0.64773 -0.516373,-1.5447 -0.822266,-1.96484 0.0334,0.56349 -0.779163,0.75043 -1.013672,0.29492 -0.384382,-1.02186 -0.266296,-2.1885 -0.443818,-3.26666 -0.154847,-1.18579 -0.325985,-2.83483 -1.720477,-3.18148 -0.622554,-0.2831 -1.320388,-0.0985 -1.738297,0.44276 -0.681823,0.6032 -0.884771,1.85158 -1.991939,1.85108 -1.414363,0.0953 -2.834974,0.0512 -4.251953,0.0801 -0.446054,-2.51281 -0.965242,-5.05806 -2.223844,-7.31033 -2.034278,-3.79899 -5.234694,-7.19188 -9.36014,-8.66819 -2.467894,-0.7684 -5.303303,-1.18791 -7.926527,-0.63525 -1.687572,0.28351 -2.426222,2.68898 -1.112536,3.82861 0.948071,0.9651 2.44466,0.76988 3.675781,0.96094 2.504701,0.14455 5.066913,0.88042 6.925725,2.6413 3.133848,2.69771 4.94272,6.75558 5.057992,10.86993 -0.01843,1.15247 0.154318,2.37336 -0.255201,3.47119 -0.506211,0.22531 -0.69597,-0.0798 -1.044922,-0.29687 -2.223272,0.82654 -4.257884,2.10169 -6.275047,3.33557 -0.438444,0.326 0.761034,0.61183 0.982828,0.88895 1.169157,0.78106 2.349565,1.75952 2.901594,3.08602 0.195758,1.09243 -1.125268,1.51107 -1.976234,1.61744 -1.096223,0.22681 -2.294265,-0.0389 -3.034406,-0.92204 -1.655182,-1.87043 -4.409298,-2.0873 -6.728712,-1.73442 -0.692431,0.11771 -1.395525,0.26309 -2.028226,0.57613 -0.373462,0.78511 -1.428506,0.34509 -2.060123,0.15747 -0.974593,-0.37119 -1.955525,-0.75799 -2.902768,-1.17309 -0.837776,-0.61362 -1.591361,-1.40399 -2.554687,-1.79492 -0.533566,-0.44119 -0.701638,-1.26281 -1.441406,-1.45118 -0.574585,-0.34733 -0.6044,-1.11158 -1.109067,-1.55244 -0.903624,-1.03198 -1.461227,-2.28792 -2.074527,-3.49443 -0.353965,-0.0805 -0.497567,-1.15917 -0.541016,-0.36719 -0.309112,0.51521 0.164882,0.72618 0.302735,1.17188 0.266225,0.76751 -0.245044,1.99778 -1.179688,1.76953 -0.704824,-0.3766 -0.398764,-1.39018 -0.552734,-2.05078 -0.205849,-0.90183 -0.351032,-1.81236 -0.365234,-2.74414 -0.208015,-2.94849 -0.08147,-5.92467 -0.490235,-8.85547 -0.221864,-0.94432 -1.423061,-1.14209 -2.248047,-1.13672 -0.565619,0.0615 -1.069302,0.43476 -1.660156,0.28515 -0.193352,-0.50116 -0.02298,-0.94307 0.360049,-1.29148 0.223053,-0.29233 0.808987,-1.41688 0.0462,-0.76906 -1.127396,0.62919 -2.393113,0.94275 -3.546052,1.52834 -3.487329,1.51694 -7.427114,1.6612 -11.133636,1.01463 -0.07032,0.29242 -0.909254,0.18609 -1.187381,-0.0873 -3.146392,-2.27777 -5.096902,-5.82382 -6.45715,-9.38539 -1.9479394,-5.20148 -2.0447771,-10.91459 -1.2133123,-16.35247 0.00871,-0.72187 0.3820324,-1.34639 0.6351873,-2.003 0.42691,0.89178 0.622926,1.8378 0.652567,2.82289 0.364287,3.64869 0.68161,7.44088 2.37673,10.75719 1.235073,2.31001 3.939501,4.07002 6.608733,3.38395 2.457981,-0.56733 3.928876,-2.82695 5.072369,-4.8902 0.882365,-1.45532 1.432888,-3.13724 2.543507,-4.43906 0.512733,-0.5223 1.258703,0.0816 1.136719,0.72265 0.436871,1.25376 1.921841,2.38617 3.259766,1.69532 1.328088,-0.61223 2.684492,-1.91319 2.317352,-3.51346 -0.310741,-1.67271 -2.014246,-2.90251 -3.704852,-2.64475 -0.743252,0.0685 -1.321047,0.0493 -0.593025,-0.662 3.482842,-5.33499 7.876058,-10.0854 12.944212,-13.94695 5.845164,-4.26531 12.723517,-7.04494 19.819703,-8.37185 2.422854,-0.35358 4.881888,-0.38498 7.325985,-0.43131 z M 116.5,131.6543 c -3.2302,0.02 -6.68278,0.96056 -9.28711,3.10742 -2.76423,2.26406 -5.30164,5.2763 -6.29584,8.83637 -0.71267,2.54178 -0.84922,5.09826 -0.57279,7.72495 0.62986,5.78552 4.36727,11.18795 9.72428,13.55388 4.15311,1.88456 8.98872,1.95838 13.2305,0.26705 5.85239,-2.43172 9.94608,-8.42118 10.2249,-14.73485 0.15846,-3.21064 -0.61641,-6.45211 -2.06886,-9.30756 -1.38231,3.12587 -5.39053,4.37728 -8.4965,3.29649 -2.23866,-0.69493 -3.69537,-2.87261 -4.25546,-5.05235 -0.50737,-2.60407 1.01833,-5.34426 3.24442,-6.66438 0.79578,-0.24353 0.0245,-0.39209 -0.40066,-0.51726 -1.64477,-0.41842 -3.35484,-0.53055 -5.04688,-0.50976 z m -56.054688,7.25976 c -1.12103,-0.007 -2.411127,0.20475 -3.017353,1.27018 -0.964492,1.25292 -1.509772,2.77529 -1.002406,4.32649 0.701776,2.36839 3.467502,3.46149 5.749006,2.99677 2.18156,-0.37736 4.460344,-1.99231 4.643838,-4.35156 0.04233,-1.52698 -0.914449,-2.94282 -2.041053,-3.89422 -1.122827,-0.56198 -2.445656,-0.29916 -3.6597,-0.3599 -0.22411,0.004 -0.448221,0.008 -0.672332,0.0122 z m -17.421874,3.42188 c -2.049901,0.14694 -3.858165,1.54991 -4.690501,3.40374 -0.527738,0.87734 -0.762566,1.98756 -0.227468,2.92048 0.725057,1.73002 2.68779,2.86382 4.546948,2.40654 1.8666,-0.47113 3.804088,-1.62245 4.472583,-3.52178 0.603314,-2.14643 -0.858435,-4.63171 -3.063583,-5.08562 -0.332197,-0.11605 -0.688739,-0.14033 -1.037979,-0.12336 z m 41.818359,17.3789 c 0.666742,0.54055 0.596305,1.56424 0.740234,2.34961 0.05567,0.53946 0.156709,1.40718 -0.584268,1.45778 -0.703996,-0.17654 -0.737847,-1.15853 -0.935361,-1.7733 -0.192977,-0.6947 -0.565997,-2.03141 0.522425,-2.11385 0.102277,-0.0676 0.171355,0.0529 0.25697,0.0798 z m 0.9375,4.26954 c 0.597796,0.29486 1.01428,1.34252 0.207031,1.64062 -0.822199,0.0804 -1.217512,-1.02193 -0.955078,-1.68555 0.242601,0.0226 0.543823,-0.12711 0.748047,0.0449 z m 0.847656,2.39648 c 0.630592,0.25582 0.81871,1.13391 0.808594,1.76367 -0.176517,0.63577 -1.047303,0.51912 -1.214844,-0.0684 -0.2513,-0.55152 -0.490766,-1.34519 0.101563,-1.76562 0.101562,0.0234 0.203125,0.0469 0.304687,0.0703 z m 116.457027,8.85937 c -0.32327,0.49173 -0.85636,1.32507 -1.51973,0.99752 -0.63879,-0.48345 -0.0162,-1.19045 0.47809,-1.49574 0.5622,-0.40485 1.22884,-0.64416 1.83071,-0.98615 -0.26302,0.49479 -0.52604,0.98958 -0.78907,1.48437 z m -108.994136,3.72071 c 0.561173,0.53705 1.240222,0.97985 1.662109,1.64453 0.0624,0.51887 -0.4962,0.97854 -0.949219,0.62695 -0.767773,-0.67719 -1.558332,-1.43322 -1.818968,-2.45835 -0.474003,-0.66859 0.889864,0.21251 1.106078,0.18687 z m -71.404297,0.008 c 0.650079,0.001 1.279736,0.82729 0.962417,1.37299 -0.573502,0.48553 -1.320681,-0.11529 -1.679214,-0.5976 -0.112049,-0.46666 0.25357,-0.83057 0.716797,-0.77539 z m 174.175783,1.96484 c 0.754,-0.0567 0.80268,0.99793 0.20117,1.27735 -0.49231,0.43535 -1.56875,0.0902 -1.29492,-0.6543 0.22625,-0.37106 0.6715,-0.59313 1.09375,-0.62305 z M 193.82227,184.5 c -0.31996,0.493 -0.86562,1.33277 -1.52507,0.99721 -0.62194,-0.49161 -0.0125,-1.19561 0.48741,-1.49533 0.57379,-0.41083 1.24197,-0.67622 1.85211,-1.03118 -0.27149,0.50977 -0.54297,1.01953 -0.81445,1.5293 z m -94.382817,-0.64062 c 0.665317,0.22222 1.258187,0.98679 0.906247,1.6914 -0.754766,0.12976 -1.840923,-0.45374 -1.675778,-1.31445 0.140558,-0.29023 0.446616,-0.48005 0.769531,-0.37695 z m 3.175777,2.38085 c 0.66067,0.22331 1.28028,0.99649 0.88282,1.69141 -0.74885,0.1229 -1.81824,-0.46434 -1.6543,-1.31445 0.13535,-0.28697 0.45636,-0.48538 0.77148,-0.37696 z m 60.35547,3.33985 c 0.54259,-0.0341 1.17764,0.41225 0.82368,0.97897 -0.46159,0.36635 -1.39206,0.41198 -1.75266,-0.0837 -0.32995,-0.6143 0.41958,-0.92286 0.92898,-0.89528 z m -78.140622,0.75586 c 0.45137,0.46682 0.375797,1.57766 -0.293699,1.75164 -0.802252,0.007 -0.7786,-1.0895 -0.546145,-1.62664 0.09008,-0.30136 0.672084,-0.40049 0.839844,-0.125 z m 0.15625,2.02344 c 0.690892,0.43009 0.41927,1.89056 -0.537109,1.63281 -0.44747,-0.39526 -0.47072,-1.23675 -0.07701,-1.62733 0.220061,-0.0584 0.422805,-0.22671 0.614116,-0.005 z m 90.507812,0.11328 c 0.59256,-0.0962 0.95374,0.72049 0.41731,1.03865 -0.65379,0.36381 -1.46763,0.74139 -2.21994,0.58534 -0.642,-0.21212 -0.28082,-1.09173 0.27274,-1.20406 0.48242,-0.21548 1.00301,-0.37244 1.52989,-0.41993 z m -44.7793,2.93164 c 0.65187,-0.0264 0.9919,0.93907 0.32422,1.1914 -0.54137,0.1608 -1.37318,0.10748 -1.40625,-0.60156 0.17223,-0.44516 0.62787,-0.63106 1.08203,-0.58984 z m 6.87891,0.52929 c 0.65187,-0.0264 0.9919,0.93908 0.32422,1.19141 -0.54137,0.1608 -1.37318,0.10748 -1.40625,-0.60156 0.17223,-0.44517 0.62787,-0.63106 1.08203,-0.58985 z m 2.02734,-0.006 c 0.47183,-0.0507 1.09168,0.29432 0.99539,0.77476 -0.36017,0.62233 -1.29656,0.54529 -1.86062,0.29946 -0.54503,-0.20023 -0.1685,-1.02898 0.33789,-1.01953 0.17345,-0.0407 0.34951,-0.0551 0.52734,-0.0547 z m -97.945309,0.16016 c 0.30802,0.33942 0.748272,0.0751 1.136719,0.0664 -0.08143,0.45832 -0.215872,0.90401 0.127804,1.27493 0.306455,0.68191 -0.690829,1.14855 -1.115668,0.58362 -0.52362,-0.51114 -1.147759,-1.14072 -0.996511,-1.93863 0.275483,0.0117 0.623372,-0.20556 0.847656,0.0137 z m 46.095703,2.77734 c 0.475415,0.30973 1.094148,0.72574 1.109375,1.3086 0.3551,0.28614 0.711718,0.74316 1.199219,0.59375 0.82567,0.12411 0.489976,1.4068 -0.08788,1.65632 -0.755445,0.15239 -1.135767,-0.75251 -1.62626,-1.17443 -0.636313,-0.77899 -1.322566,-1.48431 -1.67765,-2.38937 -0.579758,-0.85684 -0.251459,-0.79137 0.48182,-0.31455 0.20046,0.10656 0.400919,0.21312 0.601379,0.31968 z m -42.845703,0.20899 c 0.775945,0.24816 1.545192,0.97981 1.589844,1.83008 -0.356065,0.37192 -0.790367,0.36907 -1.167969,0.0254 -0.52399,-0.40864 -1.455929,-1.02461 -0.923828,-1.77539 0.165208,-0.0165 0.334486,-0.12852 0.501953,-0.0801 z m 19.742188,1.87695 c 0.756447,0.1019 0.621429,1.15739 -0.04142,1.31847 -0.386512,0.24161 -1.27597,0.30392 -1.15194,-0.34776 3.28e-4,-0.50712 0.690717,-1.05082 1.19336,-0.97071 z m 47.195311,3.9668 c 0.65642,-0.0228 1.2974,0.11153 1.9336,0.25586 -0.30038,0.42301 -0.50626,1.04361 -1.13513,0.93287 -0.71857,0.0183 -1.45078,0.0665 -2.1598,-0.0774 -0.36428,-0.49879 -0.84526,-1.04273 0.11528,-0.99678 0.40632,-0.10552 0.82919,-0.10447 1.24605,-0.11455 z m 3.2168,0.008 c 0.52406,-0.0319 1.13496,0.37646 0.84942,0.94133 -0.42578,0.42144 -1.43419,0.44896 -1.78995,-0.0536 -0.27328,-0.62256 0.42357,-0.91265 0.94053,-0.88773 z" />
        <path
           id="path1036"
           style="fill:#034f57;stroke-width:0;stroke-miterlimit:4;stroke-dasharray:none"
           d="m 140.03516,93.566406 c -7.89291,0.150108 -15.82818,1.456777 -23.30313,4.051599 -10.73713,3.797995 -20.750724,10.334185 -27.869699,19.342005 -1.912343,2.54286 -3.715101,5.17219 -5.424831,7.85249 -0.739285,0.70296 -1.810534,0.0883 -2.670474,-0.003 -4.490884,-0.8971 -9.110606,-0.98258 -13.634214,-0.77783 -7.676506,0.42497 -15.193079,2.75468 -21.925781,6.43164 -2.773939,1.55843 -5.614596,3.34054 -7.998946,5.5481 -4.300656,3.8224 -8.23784,7.99386 -11.341412,12.88811 -2.109744,3.2125 -3.716789,6.7112 -5.563301,10.07145 -0.396161,0.70256 -1.033707,1.7009 -1.985013,1.36148 -1.223054,-0.5419 -1.496178,-2.03868 -1.826876,-3.20102 -1.167798,-5.20436 -1.148444,-10.67025 0.124146,-15.85429 1.666283,-7.03934 5.307469,-13.60313 10.458115,-18.69149 0.487916,-0.41339 0.876327,-0.86183 0.632386,-1.53295 -0.0013,-1.14866 -0.420739,-2.49087 -1.629056,-2.87653 -0.818883,-0.43863 -1.769346,-0.18912 -2.432711,0.40931 -6.3909,5.14686 -11.849182,11.60974 -15.1779322,19.15603 -3.0388641,6.85115 -4.6995664,14.51501 -4.1343996,21.95813 0.5150837,7.20351 3.3792325,14.32208 8.4852208,19.49748 3.176644,3.33053 7.129029,5.95224 11.54583,7.30598 2.333472,0.72812 4.674139,1.28323 7.091189,1.52222 0.923214,0.088 0.95742,1.13289 1.139814,1.83205 0.630812,2.92178 1.594374,5.76853 3.196931,8.33836 1.834981,3.0057 4.458259,5.67304 7.564468,7.36686 2.629882,1.39882 5.458436,2.5713 8.468735,2.73275 2.897963,0.20626 6.028538,0.15747 9.020838,0.12112 3.910494,0.0371 7.832038,-2.12845 9.606499,-5.66461 0.807415,-1.44503 1.147609,-3.08068 1.737897,-4.61471 1.036043,-0.24306 2.033573,0.39999 3.052509,0.53824 1.856006,0.45362 3.761971,0.6552 5.625226,1.06723 1.603177,2.45108 3.267816,4.93647 5.632393,6.72647 3.581648,2.815 8.096612,4.3348 12.629888,4.5303 3.972221,0.26897 8.016801,0.40218 12.032621,0.43967 2.19161,-0.0756 4.41186,-0.14366 6.5599,-0.61371 1.89863,-0.5428 3.67339,-1.74174 4.53396,-3.56761 0.67571,-1.35119 0.60736,-2.96628 0.39639,-4.42723 -0.13497,-0.58731 -0.6935,-1.45433 0.0918,-1.81641 1.18955,-0.18823 2.37463,0.30363 3.56017,0.3975 4.29747,0.57724 8.61482,0.98082 12.95902,1.13606 1.19979,0.016 1.76044,1.22133 2.69969,1.75779 3.37185,2.2992 7.3456,3.6708 11.40809,4.02308 3.91663,0.38272 7.93326,0.41789 11.82941,-0.38757 2.79504,-0.56265 5.60392,-2.53683 6.12962,-5.4888 0.20605,-0.81972 -0.22939,-2.01217 0.65424,-2.50837 3.09479,-0.56648 6.11358,-1.55977 9.10716,-2.53329 3.76267,-1.34966 7.53155,-3.0849 11.04953,-5.09794 8.7512,-5.23515 15.89785,-13.33054 19.38644,-22.9688 2.57104,-6.9046 3.14871,-14.45348 2.10034,-21.72202 -0.71954,-5.24339 -1.78063,-10.48596 -3.45225,-15.48568 -2.25359,-6.46005 -6.42738,-12.39873 -12.22052,-16.13758 -3.01055,-1.78556 -6.25658,-3.20781 -9.67383,-3.88282 -0.92073,-0.0935 -1.9291,-0.0629 -2.64076,-0.76733 -2.57425,-2.17431 -4.83109,-4.72136 -7.59044,-6.68088 -6.04578,-4.31189 -12.94986,-7.331687 -20.1198,-9.099938 -5.8599,-1.461099 -11.88381,-2.08228 -17.89509,-2.000676 z m 0.91015,5.042969 c 11.06379,-0.132196 22.33476,2.546765 31.63845,8.672035 3.70156,2.40349 7.00119,5.38808 9.87132,8.73421 0.35133,0.35338 0.73249,0.82653 1.28585,0.64074 2.57505,0.15308 5.15489,0.5917 7.61004,1.39319 7.13267,2.47261 12.84891,8.2964 15.68589,15.23561 0.98415,2.37068 1.78053,4.8704 1.76738,7.46416 0.13894,5.73234 0.30414,11.46916 0.18489,17.20306 -0.0768,4.35154 -1.31846,8.61774 -3.09449,12.56466 -2.71356,5.91614 -7.251,10.80542 -12.29973,14.82303 -3.94288,3.02627 -8.46525,5.22169 -13.09312,6.98707 -6.86893,2.52915 -14.13014,3.80911 -21.38482,4.59607 -6.37001,0.42229 -12.76239,0.47817 -19.14486,0.4059 -7.50973,-0.12758 -15.02927,-1.05561 -22.28974,-2.99813 -8.33427,-2.27096 -16.50036,-6.14216 -22.478628,-12.51977 -4.820443,-5.14214 -8.605507,-11.3252 -10.694674,-18.07175 -1.637401,-5.70082 -2.248165,-11.69707 -1.883275,-17.61448 0.578997,-6.9063 2.692712,-13.66185 5.932483,-19.7761 1.89982,-3.66349 4.522491,-6.88622 7.405149,-9.81797 2.535599,-2.66298 5.306705,-5.10371 8.375605,-7.13743 5.69497,-3.96417 12.13657,-6.81361 18.87741,-8.44397 5.79496,-1.446849 11.75276,-2.272664 17.72887,-2.340135 z m 45.10742,27.916015 c -1.43182,0.0723 -2.84592,0.43208 -4.18164,0.9082 -0.60886,3.49665 -0.81104,7.0251 -0.90625,10.55079 -0.12395,4.734 0.69003,9.447 2.11161,13.95262 0.71004,2.24133 1.32103,4.53352 2.30246,6.67433 0.47081,0.41164 1.22993,0.15891 1.81872,0.23805 3.20887,0.0583 6.38978,-1.16101 8.73912,-3.34634 3.40667,-2.91245 5.54126,-7.30143 5.47776,-11.80809 -5e-5,-2.99581 -0.78401,-5.98206 -2.10497,-8.66055 -0.19351,-0.81715 -0.59892,-0.0405 -1.00592,0.13628 -1.53081,0.96343 -3.57459,1.2868 -5.18655,0.32397 -1.90077,-1.00234 -3.17087,-3.40395 -2.34222,-5.4998 0.28975,-0.94358 0.78203,-1.83796 1.51421,-2.51047 -1.98632,-0.83899 -4.09174,-1.07297 -6.23633,-0.95899 z M 70.326172,129.0918 c 3.24398,0.0535 6.525714,0.0293 9.720703,0.65234 0.606037,0.0716 1.092652,0.64749 0.761333,1.2367 -1.404176,4.47119 -2.698349,9.01672 -3.222214,13.68706 -0.33675,4.14171 -0.27084,8.37205 0.187146,12.50904 0.866153,6.41944 3.160937,12.55297 6.331423,18.1984 3.570894,6.30637 8.3916,11.99855 14.469799,16.0125 4.665738,4.9694 12.480848,4.64859 16.913918,8.0106 0.93242,1.52511 2.37821,2.95221 2.45703,4.83594 0.009,1.05802 -0.94833,1.89198 -1.98633,1.8457 -7.445,-0.0362 -18.017357,0.83823 -23.985021,-2.00535 -4.126829,-2.09879 -7.073317,-6.26059 -7.944662,-10.77782 -0.465071,-2.80754 -0.292451,-5.67502 -0.669699,-8.48838 -0.15545,-1.20759 -1.518003,-2.13916 -2.661873,-1.5326 -0.819692,0.20309 -1.311521,0.95264 -1.299699,1.77589 -0.211639,2.88949 0.210046,5.79127 0.02971,8.67868 -0.0267,0.66149 -0.770537,0.92323 -1.295254,0.60487 -1.398916,-0.46485 -2.79784,-0.92776 -4.193027,-1.4037 -0.105803,-3.15085 0.113611,-6.33473 -0.401511,-9.45722 -1.171813,-5.51336 -4.613833,-10.70212 -9.668801,-13.34942 -2.903698,-1.25838 -6.185018,-1.80572 -9.32263,-1.2809 -1.49238,0.2066 -2.476071,2.14323 -1.530886,3.40004 0.705078,1.31383 2.362128,1.13003 3.617029,1.20773 2.717303,0.26889 5.565233,1.04203 7.532515,3.04767 1.694565,1.55763 3.126876,3.44625 3.846051,5.65441 1.858965,4.9503 1.259454,10.57415 -0.995679,15.2913 -0.387059,0.76549 -0.720991,1.63195 -0.47581,2.4729 0.05747,1.10454 -1.010156,1.79114 -1.762007,2.41943 -1.836878,1.22565 -4.170629,0.98326 -6.27108,1.08383 -2.774444,-0.0471 -5.59245,0.16548 -8.327757,-0.39517 -5.16243,-1.23358 -9.553958,-5.06935 -11.607209,-9.94643 -1.478629,-3.24214 -1.745222,-6.84569 -1.8193,-10.36008 -0.08708,-2.01165 0.07701,-4.05507 -0.29144,-6.042 -0.704515,-1.13109 -2.669182,-1.29393 -3.324219,-0.0117 -0.823273,1.70578 -0.632022,3.67867 -0.874518,5.51317 0.07101,0.89475 -1.027137,0.81679 -1.632243,0.71013 -5.239771,-0.77418 -10.323276,-3.05765 -14.073664,-6.84945 -3.374228,-3.23115 -5.768414,-7.44539 -6.803814,-12.00156 -0.7412236,-3.23265 -0.7504598,-6.58342 -0.705605,-9.88401 0.068193,-1.69942 0.2634948,-3.41989 0.7022085,-5.05698 0.2444808,-0.56727 0.5039785,-1.53105 0.6843525,-0.40565 0.487274,1.33819 0.351517,2.80866 0.557446,4.20658 0.332956,3.25224 0.764995,6.50923 2.298874,9.43801 1.242326,2.44699 4.379782,4.11652 7.043198,3.01886 2.30602,-0.9502 3.756442,-3.17986 4.794961,-5.29354 1.949078,-3.6627 4.021376,-7.27075 6.348806,-10.70732 4.252969,-5.83791 9.548429,-11.05144 15.946625,-14.49617 5.192593,-2.83023 10.892509,-4.78895 16.760248,-5.57293 2.040239,-0.20067 4.094717,-0.1815 6.142578,-0.19336 z m 46.470708,2.54687 c -3.63216,0.1081 -7.41261,1.06824 -10.15403,3.57394 -2.42289,1.99805 -4.33423,4.48809 -5.37115,7.46063 -1.981952,5.46947 -1.275097,11.92975 2.13999,16.63132 2.47249,3.49275 6.34865,6.01331 10.57269,6.74232 2.41919,0.26109 4.91124,0.33231 7.25037,-0.20938 6.25412,-1.62385 11.08785,-7.26976 12.07582,-13.60647 0.39381,-2.31194 0.27157,-4.6864 -0.29104,-6.89509 -0.38855,-1.45355 -0.83361,-2.91221 -1.56445,-4.23438 -1.8541,4.18115 -8.34308,4.97452 -11.22034,1.46072 -1.6683,-1.96455 -2.21493,-4.98914 -0.8031,-7.24587 0.68154,-1.1733 1.62902,-2.23814 2.85938,-2.84766 -1.74181,-0.67847 -3.6376,-0.86043 -5.49414,-0.83008 z m 62.36523,42.39258 c -1.28613,0.22411 -2.49842,1.29927 -2.71484,2.60742 -0.0147,1.09716 0.0304,2.33509 -0.84817,3.15051 -1.90597,2.38055 -4.83895,3.75773 -7.8431,4.04972 -2.85607,0.26264 -5.82977,0.25933 -8.57325,-0.67342 -1.74757,-0.63016 -3.35676,-1.87008 -4.19484,-3.5455 -0.23105,-0.73615 0.42218,-1.40276 0.25428,-2.16607 0.0613,-1.19392 -0.4955,-2.45488 -1.67027,-2.90096 -1.56282,-0.7613 -3.64864,-0.2643 -4.52148,1.29226 -1.2398,1.90652 -0.43747,4.32748 0.61753,6.12354 1.88091,3.42028 5.31335,5.77371 9.04251,6.76468 5.73638,1.60762 12.05083,0.64267 17.24393,-2.19165 2.43445,-1.5667 4.63141,-3.63167 6.05536,-6.17264 0.85598,-1.66539 1.23368,-4.0302 -0.25706,-5.45823 -0.69141,-0.63051 -1.64919,-1.00891 -2.5906,-0.87966 z M 164.9375,201.4375 c 0.44183,-0.0465 1.00641,0.27045 0.93274,0.72626 -0.39355,0.75755 -1.39473,0.82643 -2.14939,0.96964 -1.40275,0.12227 -2.85877,0.25213 -4.24323,-0.0368 -0.57055,-0.018 -0.28915,-1.00952 0.1884,-1.01069 1.75296,-0.22621 3.50162,-0.60107 5.27148,-0.64844 z"
           sodipodi:nodetypes="cccccccccccccccccccccccccccccccccccccccccccccccccccccccccccccccccccccccccccccccccccccccccccccscccccccccccccccccccccccccccccccccccccccccccccccssccccccccccccccccccccccccccccsccccss" />
      </g>
    </g>
  </g>
</svg>
