<?xml version="1.0" encoding="UTF-8" standalone="no"?>
<!-- Created with Inkscape (http://www.inkscape.org/) -->

<svg
   width="200"
   height="120"
   viewBox="0 0 52.916665 31.749999"
   version="1.1"
   id="svg5"
   inkscape:version="1.1.2 (0a00cf5339, 2022-02-04)"
   sodipodi:docname="error_404.svg"
   xmlns:inkscape="http://www.inkscape.org/namespaces/inkscape"
   xmlns:sodipodi="http://sodipodi.sourceforge.net/DTD/sodipodi-0.dtd"
   xmlns="http://www.w3.org/2000/svg"
   xmlns:svg="http://www.w3.org/2000/svg">
  <sodipodi:namedview
     id="namedview7"
     pagecolor="#ffffff"
     bordercolor="#666666"
     borderopacity="1.0"
     inkscape:pageshadow="2"
     inkscape:pageopacity="0.0"
     inkscape:pagecheckerboard="0"
     inkscape:document-units="mm"
     showgrid="false"
     inkscape:zoom="3.276937"
     inkscape:cx="82.546597"
     inkscape:cy="73.544288"
     inkscape:window-width="1920"
     inkscape:window-height="1007"
     inkscape:window-x="0"
     inkscape:window-y="0"
     inkscape:window-maximized="1"
     inkscape:current-layer="layer1"
     borderlayer="false"
     width="209mm"
     units="px" />
  <defs
     id="defs2" />
  <g
     inkscape:label="Capa 1"
     inkscape:groupmode="layer"
     id="layer1">
    <g
       id="g119202"
       transform="matrix(0.38076161,0,0,0.38761487,24.150887,-7.8494866)">
      <g
         id="g58259"
         transform="matrix(-0.90638615,-0.12063144,-0.13192727,0.9912594,-19.11634,-28.316056)">
        <path
           style="fill:#6a503f;fill-opacity:1;stroke:#000000;stroke-width:1.865;stroke-linecap:butt;stroke-linejoin:miter;stroke-miterlimit:4;stroke-dasharray:none;stroke-opacity:1"
           d="m -60.302568,67.020121 c -0.433834,-13.644092 0.0016,-20.314367 0.780793,-23.897154 -8.857442,1.954826 -17.318123,9.865995 -20.636201,16.609616 -3.465253,10.716712 0.07035,15.409981 8.037764,20.52361 z"
           id="path58255"
           sodipodi:nodetypes="ccccc" />
        <path
           style="fill:#7d634c;fill-opacity:1;stroke:none;stroke-width:0.264583px;stroke-linecap:butt;stroke-linejoin:miter;stroke-opacity:1"
           d="m -61.389023,53.051918 0.748621,-8.675081 c -10.837276,3.583568 -21.234262,11.661842 -20.533143,25.130694 2.253142,5.221741 5.262469,7.538347 8.944156,9.53718 l 1.190856,-1.337096 c -11.531584,-13.131423 -0.41171,-24.737784 9.64951,-24.655697 z"
           id="path58257"
           sodipodi:nodetypes="cccccc" />
      </g>
      <g
         id="g52682"
         transform="translate(43.67372,-20.367911)">
        <path
           style="fill:#6a503f;fill-opacity:1;stroke:#000000;stroke-width:1.865;stroke-linecap:butt;stroke-linejoin:miter;stroke-miterlimit:4;stroke-dasharray:none;stroke-opacity:1"
           d="m -60.302568,67.020121 c -0.433834,-13.644092 0.0016,-20.314367 0.780793,-23.897154 -8.857442,1.954826 -17.318123,9.865995 -20.636201,16.609616 -3.465253,10.716712 0.07035,15.409981 8.037764,20.52361 z"
           id="path730"
           sodipodi:nodetypes="ccccc" />
        <path
           style="fill:#7d634c;fill-opacity:1;stroke:none;stroke-width:0.264583px;stroke-linecap:butt;stroke-linejoin:miter;stroke-opacity:1"
           d="m -61.389023,53.051918 0.748621,-8.675081 c -10.837276,3.583568 -21.234262,11.661842 -20.533143,25.130694 2.253142,5.221741 5.262469,7.538347 8.944156,9.53718 l 1.190856,-1.337096 c -11.531584,-13.131423 -0.41171,-24.737784 9.64951,-24.655697 z"
           id="path11403"
           sodipodi:nodetypes="cccccc" />
      </g>
      <path
         style="fill:#7d634c;fill-opacity:1;stroke:#000000;stroke-width:1.565;stroke-linecap:butt;stroke-linejoin:miter;stroke-miterlimit:4;stroke-dasharray:none;stroke-opacity:1"
         d="M -18.792161,92.796255 C -66.133048,24.872685 75.92561,21.673763 32.244378,92.583185 Z"
         id="path52751"
         sodipodi:nodetypes="ccc" />
      <g
         id="g65606"
         transform="translate(-31.554593,-76.30786)">
        <ellipse
           style="fill:#7d634c;fill-opacity:1;stroke:none;stroke-width:1.565;stroke-miterlimit:4;stroke-dasharray:none"
           id="path59451"
           cx="25.955574"
           cy="144.61601"
           rx="0.1314631"
           ry="0.052849095" />
        <path
           style="fill:#312318;fill-opacity:1;stroke:#000000;stroke-width:0.264583px;stroke-linecap:butt;stroke-linejoin:miter;stroke-opacity:1"
           d="m 16.538302,134.54092 c 1.193742,0.45881 2.387484,0.91761 3.581226,1.37642 -4.722982,3.26001 -4.048368,10.49558 0.594406,13.17388 7.058372,2.64266 10.638935,-4.06434 9.09368,-9.94915 0.700447,0.30248 1.400895,0.60495 2.101342,0.90743 0.696538,-0.29183 0.8502,-0.56099 0.982323,-0.81061 0.306868,-0.57975 0.146434,-1.35794 0.08033,-1.3324 l -15.246796,-5.6223 c -1.237848,0.31438 -1.458007,1.09975 -1.189721,2.11117 0.0011,0.0485 0.0021,0.097 0.0032,0.14556 z"
           id="path58328"
           sodipodi:nodetypes="cccccsccccc" />
        <path
           style="fill:#ffffff;stroke:#000000;stroke-width:0.264583px;stroke-linecap:butt;stroke-linejoin:miter;stroke-opacity:1"
           d="m 25.199047,138.17397 c -3.685078,0.77156 -3.071371,6.07567 0.07677,6.41689 3.705647,-0.83953 2.407259,-6.19329 -0.07677,-6.41689 z"
           id="path59899"
           sodipodi:nodetypes="ccc" />
      </g>
      <g
         id="g65738">
        <g
           id="g65614"
           transform="translate(-5.0189212,-76.228046)">
          <ellipse
             style="fill:#7d634c;fill-opacity:1;stroke:none;stroke-width:1.565;stroke-miterlimit:4;stroke-dasharray:none"
             id="ellipse65608"
             cx="25.955574"
             cy="144.61601"
             rx="0.1314631"
             ry="0.052849095" />
          <path
             style="fill:#312318;fill-opacity:1;stroke:#000000;stroke-width:0.264583px;stroke-linecap:butt;stroke-linejoin:miter;stroke-opacity:1"
             d="m 32.967964,134.54092 c -1.193742,0.45881 -2.387484,0.91761 -3.581226,1.37642 4.722982,3.26001 4.048368,10.49558 -0.594406,13.17388 -7.058372,2.64266 -10.638935,-4.06434 -9.09368,-9.94915 -0.700447,0.30248 -1.400895,0.60495 -2.101342,0.90743 -0.696538,-0.29183 -0.8502,-0.56099 -0.982323,-0.81061 -0.306868,-0.57975 -0.146434,-1.35794 -0.08033,-1.3324 l 15.246796,-5.6223 c 1.237848,0.31438 1.458007,1.09975 1.189721,2.11117 -0.0011,0.0485 -0.0021,0.097 -0.0032,0.14556 z"
             id="path65610"
             sodipodi:nodetypes="cccccsccccc" />
          <path
             style="fill:#ffffff;stroke:#000000;stroke-width:0.264583px;stroke-linecap:butt;stroke-linejoin:miter;stroke-opacity:1"
             d="m 25.056209,138.17397 c 3.685078,0.77156 3.071371,6.07567 -0.07677,6.41689 -3.705647,-0.83953 -2.407259,-6.19329 0.07677,-6.41689 z"
             id="path65612"
             sodipodi:nodetypes="ccc" />
        </g>
      </g>
      <g
         id="g105210"
         transform="translate(-62.504097,-91.501589)">
        <path
           style="fill:#7d634c;fill-opacity:1;stroke:#312519;stroke-width:1.465;stroke-linecap:butt;stroke-linejoin:miter;stroke-miterlimit:4;stroke-dasharray:none;stroke-opacity:1"
           d="m 56.338518,179.21217 c 4.467772,-8.90774 17.698627,-11.50634 23.628138,0.0955"
           id="path66316"
           sodipodi:nodetypes="cc" />
        <g
           id="g105204"
           transform="translate(-0.57517758,-0.28912461)">
          <path
             style="fill:#312316;fill-opacity:1;stroke:#000000;stroke-width:0.264583px;stroke-linecap:butt;stroke-linejoin:miter;stroke-opacity:1"
             d="m 61.110709,171.76047 c 0.5491,0.61385 1.238597,0.91565 1.882178,1.21545 12.929966,6.02325 19.651818,-9.10614 5.542756,-8.90932 -5.000407,-0.76928 -10.408347,3.43633 -7.424934,7.69387 z"
             id="path99285"
             sodipodi:nodetypes="cscc" />
          <path
             style="fill:#ffffff;stroke:#000000;stroke-width:0.264583px;stroke-linecap:butt;stroke-linejoin:miter;stroke-opacity:1"
             d="m 66.716623,165.20189 c -1.973318,1.03611 -1.089642,1.74144 0.01535,2.42115 1.061678,0.19078 2.173153,0.18154 3.295809,0.1274 1.402133,-0.94393 1.656074,-1.7975 -0.127299,-2.49074 -1.061287,-0.24622 -2.122573,-0.22982 -3.18386,-0.0578 z"
             id="path101026"
             sodipodi:nodetypes="ccccc" />
        </g>
      </g>
      <rect
         style="fill:#000000;fill-opacity:1;stroke:none;stroke-width:1.52379;stroke-miterlimit:4;stroke-dasharray:none"
         id="rect114687"
         width="138.97585"
         height="2.1365166"
         x="-63.427841"
         y="91.443947"
         ry="0.43756473" />
      <g
         id="g114593"
         transform="translate(-163.65553,-112.70075)">
        <g
           id="g114585">
          <path
             style="fill:#68513f;fill-opacity:1;stroke:#000000;stroke-width:0.965;stroke-linecap:butt;stroke-linejoin:miter;stroke-miterlimit:4;stroke-dasharray:none;stroke-opacity:1"
             d="m 144.65618,208.64435 c 0.2475,-3.89855 -0.26647,-7.65657 -2.49116,-11.09884 -3.33713,-4.36882 -7.05964,-3.78279 -10.71553,-3.51338 -6.7542,1.82303 -7.78852,5.50344 -8.02504,10.7543 -0.13207,4.88172 2.48107,8.27729 7.54403,5.71647 2.62352,0.92182 4.95943,1.76251 7.72511,-0.71717 1.82297,0.89206 3.60329,2.11388 5.96259,-1.14138 z"
             id="path105335"
             sodipodi:nodetypes="ccccccc" />
          <path
             style="fill:#7d634c;fill-opacity:1;stroke:none;stroke-width:0.264583px;stroke-linecap:butt;stroke-linejoin:miter;stroke-opacity:1"
             d="m 123.72717,206.08465 c 2.17679,0.6365 4.35358,0.30513 6.53037,-0.42186 2.71513,1.01577 5.43027,0.64793 8.1454,-0.18978 2.15348,0.83873 4.30695,0.85919 6.46043,0.024 0.22686,-3.94897 -2.13364,-7.63108 -6.42607,-11.11391 -4.93595,-1.04588 -9.15347,-0.90589 -11.32997,2.60313 -3.44925,3.17874 -4.43557,6.20272 -3.38016,9.09842 z"
             id="path106995"
             sodipodi:nodetypes="ccccccc" />
          <path
             style="fill:#000000;stroke:#000000;stroke-width:0.264583px;stroke-linecap:butt;stroke-linejoin:miter;stroke-opacity:1"
             d="m 129.82707,203.91559 c 0.99932,2.3202 1.54046,4.64041 1.90705,6.96061 -0.80787,0.0564 -1.61574,0.11271 -2.42361,0.16907 0.9987,-1.70348 0.77346,-4.40369 0.51656,-7.12968 z"
             id="path106506"
             sodipodi:nodetypes="cccc" />
          <path
             style="fill:#000000;stroke:#000000;stroke-width:0.264583px;stroke-linecap:butt;stroke-linejoin:miter;stroke-opacity:1"
             d="m 137.63804,203.5492 c 1.75626,1.79884 1.65417,4.16621 1.84558,6.44379 -0.55328,0.0418 -1.10655,0.0835 -1.65983,0.12526 0.93738,-2.06559 0.0306,-4.36019 -0.18575,-6.56905 z"
             id="path106508"
             sodipodi:nodetypes="cccc" />
          <path
             style="fill:none;fill-opacity:1;stroke:#000000;stroke-width:0.965;stroke-linecap:butt;stroke-linejoin:miter;stroke-miterlimit:4;stroke-dasharray:none;stroke-opacity:1"
             d="m 144.65618,208.64435 c 0.2475,-3.89855 -0.26647,-7.65657 -2.49116,-11.09884 -3.33713,-4.36882 -7.05964,-3.78279 -10.71553,-3.51338 -6.7542,1.82303 -7.78852,5.50344 -8.02504,10.7543 -0.13207,4.88172 2.48107,8.27729 7.54403,5.71647 2.62352,0.92182 4.95943,1.76251 7.72511,-0.71717 1.82297,0.89206 3.60329,2.11388 5.96259,-1.14138 z"
             id="path114560"
             sodipodi:nodetypes="ccccccc" />
        </g>
      </g>
      <g
         id="g114607"
         transform="matrix(-1,0,0,1,172.06672,-109.73943)">
        <g
           id="g114605">
          <path
             style="fill:#68513f;fill-opacity:1;stroke:#000000;stroke-width:0.965;stroke-linecap:butt;stroke-linejoin:miter;stroke-miterlimit:4;stroke-dasharray:none;stroke-opacity:1"
             d="m 144.65618,208.64435 c 0.2475,-3.89855 -0.26647,-7.65657 -2.49116,-11.09884 -3.33713,-4.36882 -7.05964,-3.78279 -10.71553,-3.51338 -6.7542,1.82303 -7.78852,5.50344 -8.02504,10.7543 -0.13207,4.88172 2.48107,8.27729 7.54403,5.71647 2.62352,0.92182 4.95943,1.76251 7.72511,-0.71717 1.82297,0.89206 3.60329,2.11388 5.96259,-1.14138 z"
             id="path114595"
             sodipodi:nodetypes="ccccccc" />
          <path
             style="fill:#7d634c;fill-opacity:1;stroke:none;stroke-width:0.264583px;stroke-linecap:butt;stroke-linejoin:miter;stroke-opacity:1"
             d="m 123.72717,206.08465 c 2.17679,0.6365 4.35358,0.30513 6.53037,-0.42186 2.71513,1.01577 5.43027,0.64793 8.1454,-0.18978 2.15348,0.83873 4.30695,0.85919 6.46043,0.024 0.22686,-3.94897 -2.13364,-7.63108 -6.42607,-11.11391 -4.93595,-1.04588 -9.15347,-0.90589 -11.32997,2.60313 -3.44925,3.17874 -4.43557,6.20272 -3.38016,9.09842 z"
             id="path114597"
             sodipodi:nodetypes="ccccccc" />
          <path
             style="fill:#000000;stroke:#000000;stroke-width:0.264583px;stroke-linecap:butt;stroke-linejoin:miter;stroke-opacity:1"
             d="m 129.82707,203.91559 c 0.99932,2.3202 1.54046,4.64041 1.90705,6.96061 -0.80787,0.0564 -1.61574,0.11271 -2.42361,0.16907 0.9987,-1.70348 0.77346,-4.40369 0.51656,-7.12968 z"
             id="path114599"
             sodipodi:nodetypes="cccc" />
          <path
             style="fill:#000000;stroke:#000000;stroke-width:0.264583px;stroke-linecap:butt;stroke-linejoin:miter;stroke-opacity:1"
             d="m 137.63804,203.5492 c 1.75626,1.79884 1.65417,4.16621 1.84558,6.44379 -0.55328,0.0418 -1.10655,0.0835 -1.65983,0.12526 0.93738,-2.06559 0.0306,-4.36019 -0.18575,-6.56905 z"
             id="path114601"
             sodipodi:nodetypes="cccc" />
          <path
             style="fill:none;fill-opacity:1;stroke:#000000;stroke-width:0.965;stroke-linecap:butt;stroke-linejoin:miter;stroke-miterlimit:4;stroke-dasharray:none;stroke-opacity:1"
             d="m 144.65618,208.64435 c 0.2475,-3.89855 -0.26647,-7.65657 -2.49116,-11.09884 -3.33713,-4.36882 -7.05964,-3.78279 -10.71553,-3.51338 -6.7542,1.82303 -7.78852,5.50344 -8.02504,10.7543 -0.13207,4.88172 2.48107,8.27729 7.54403,5.71647 2.62352,0.92182 4.95943,1.76251 7.72511,-0.71717 1.82297,0.89206 3.60329,2.11388 5.96259,-1.14138 z"
             id="path114603"
             sodipodi:nodetypes="ccccccc" />
        </g>
      </g>
    </g>
  </g>
</svg>
